<?xml version="1.0" encoding="UTF-8"?>
<svg version="1.1" xmlns="http://www.w3.org/2000/svg" width="500" height="500">
<path d="M0 0 C0.65693848 0.34619385 1.31387695 0.6923877 1.99072266 1.04907227 C3.03607178 1.58866577 3.03607178 1.58866577 4.10253906 2.13916016 C24.59563988 12.92712737 39.08929189 28.84571295 47.26806641 50.47094727 C53.90653479 73.59851455 47.59160346 98.23998994 36.24755859 118.8425293 C30.07546124 129.6871019 23.10005865 139.83956976 15.11572266 149.42407227 C14.53306641 150.14208008 13.95041016 150.86008789 13.35009766 151.59985352 C11.98781992 153.2497967 10.55842484 154.84396988 9.11572266 156.42407227 C8.45572266 156.42407227 7.79572266 156.42407227 7.11572266 156.42407227 C6.85791016 157.00672852 6.60009766 157.58938477 6.33447266 158.18969727 C5.01738249 160.60436257 3.56483881 162.24147404 1.61572266 164.17407227 C1.00728516 164.78766602 0.39884766 165.40125977 -0.22802734 166.03344727 C-1.88427734 167.42407227 -1.88427734 167.42407227 -3.88427734 167.42407227 C-3.88427734 168.08407227 -3.88427734 168.74407227 -3.88427734 169.42407227 C-9.36046782 174.42407227 -9.36046782 174.42407227 -11.88427734 174.42407227 C-11.88427734 175.08407227 -11.88427734 175.74407227 -11.88427734 176.42407227 C-13.8563561 177.8370882 -15.83345086 179.13447918 -17.88427734 180.42407227 C-19.13365603 181.25965673 -20.38096941 182.0983355 -21.62646484 182.93969727 C-31.05787899 189.21322087 -40.57881549 194.72096188 -50.88427734 199.42407227 C-52.02509766 199.95645508 -53.16591797 200.48883789 -54.34130859 201.03735352 C-72.53551679 208.93988839 -92.19931823 212.22351745 -111.88427734 213.42407227 C-112.21427734 212.43407227 -112.54427734 211.44407227 -112.88427734 210.42407227 C-111.75892578 210.13274414 -110.63357422 209.84141602 -109.47412109 209.54125977 C-90.48519402 204.51722755 -72.60308672 197.41568045 -56.40771484 186.12329102 C-54.2762298 184.6880031 -52.21148481 183.50026914 -49.88427734 182.42407227 C-49.88427734 181.76407227 -49.88427734 181.10407227 -49.88427734 180.42407227 C-49.22427734 180.42407227 -48.56427734 180.42407227 -47.88427734 180.42407227 C-47.88427734 179.76407227 -47.88427734 179.10407227 -47.88427734 178.42407227 C-47.22427734 178.42407227 -46.56427734 178.42407227 -45.88427734 178.42407227 C-45.88427734 177.76407227 -45.88427734 177.10407227 -45.88427734 176.42407227 C-45.22427734 176.42407227 -44.56427734 176.42407227 -43.88427734 176.42407227 C-43.88427734 175.76407227 -43.88427734 175.10407227 -43.88427734 174.42407227 C-43.22427734 174.42407227 -42.56427734 174.42407227 -41.88427734 174.42407227 C-41.65740234 173.90844727 -41.43052734 173.39282227 -41.19677734 172.86157227 C-39.40210116 169.52860222 -37.38462719 166.27703555 -34.88427734 163.42407227 C-34.22427734 163.42407227 -33.56427734 163.42407227 -32.88427734 163.42407227 C-32.75794922 162.8349707 -32.63162109 162.24586914 -32.50146484 161.63891602 C-31.88427734 159.42407227 -31.88427734 159.42407227 -30.00927734 155.98657227 C-20.88915997 137.91276302 -24.5026939 117.63734314 -30.53271484 99.29516602 C-33.04485689 91.91145367 -35.78705395 84.62156182 -38.63427734 77.36157227 C-45.2542789 60.33248931 -48.37197494 40.19970357 -41.13427734 22.79907227 C-35.42749744 11.04981952 -27.95761431 3.98543987 -16.79052734 -2.60717773 C-10.74695991 -4.62170021 -5.45697855 -2.72030994 0 0 Z M7.11572266 18.42407227 C7.11572266 19.74407227 7.11572266 21.06407227 7.11572266 22.42407227 C7.77572266 22.75407227 8.43572266 23.08407227 9.11572266 23.42407227 C9.44572266 22.10407227 9.77572266 20.78407227 10.11572266 19.42407227 C9.12572266 19.09407227 8.13572266 18.76407227 7.11572266 18.42407227 Z M27.11572266 29.42407227 C26.78572266 30.08407227 26.45572266 30.74407227 26.11572266 31.42407227 C26.77572266 32.08407227 27.43572266 32.74407227 28.11572266 33.42407227 C28.44572266 32.10407227 28.77572266 30.78407227 29.11572266 29.42407227 C28.45572266 29.42407227 27.79572266 29.42407227 27.11572266 29.42407227 Z " fill="#822526" transform="translate(278.88427734375,194.575927734375)"/>
<path d="M0 0 C-0.66 1.32 -1.32 2.64 -2 4 C-2.66 4 -3.32 4 -4 4 C-4 4.99 -4 5.98 -4 7 C-4.66 7 -5.32 7 -6 7 C-6.2475 7.825 -6.495 8.65 -6.75 9.5 C-7.95935148 12.88618414 -9.42719485 15.9381047 -11.0546875 19.1328125 C-19.625812 36.06255428 -17.89158936 58.34265508 -12.359375 75.93359375 C-11.9077048 77.28954796 -11.45468453 78.64505359 -11 80 C-10.65453125 81.12535156 -10.3090625 82.25070312 -9.953125 83.41015625 C-8.05158195 89.44989341 -5.68831512 95.24845316 -3.2265625 101.078125 C5.4774054 121.81241797 8.25882925 141.13919263 0.06640625 162.42578125 C-0.57994915 163.96899342 -1.28067614 165.48941988 -2 167 C-2.66 167 -3.32 167 -4 167 C-4 167.99 -4 168.98 -4 170 C-4.66 170 -5.32 170 -6 170 C-6.66 171.65 -7.32 173.3 -8 175 C-8.66 175 -9.32 175 -10 175 C-10.26296875 175.598125 -10.5259375 176.19625 -10.796875 176.8125 C-13.71448229 182.11724053 -19.89982708 186.00642024 -25 189 C-27.875 189.75 -27.875 189.75 -30 190 C-29.67773438 188.73929688 -29.35546875 187.47859375 -29.0234375 186.1796875 C-26.32764771 173.97944945 -26.07542519 159.18382303 -32 148 C-32.67503807 146.66434482 -33.34946214 145.32837924 -34.0234375 143.9921875 C-37.33145246 137.53817399 -40.83226908 131.21990339 -44.5625 125 C-57.41380493 103.18266838 -65.19905982 79.58449203 -58.97265625 54.2734375 C-56.1627142 44.81668472 -52.109312 35.81745717 -46 28 C-45.34 28 -44.68 28 -44 28 C-43.74476563 27.42507812 -43.48953125 26.85015625 -43.2265625 26.2578125 C-37.89716687 16.44765111 -11.98604342 -3.99534781 0 0 Z " fill="#1F2B2E" transform="translate(232,192)"/>
<path d="M0 0 C9.33375069 8.94359391 14.56663395 19.04867073 15.08740234 31.96459961 C15.27381134 42.98572862 13.13325039 54.20176826 5.6875 62.8125 C5.0275 62.8125 4.3675 62.8125 3.6875 62.8125 C3.44 63.43125 3.1925 64.05 2.9375 64.6875 C1.48121361 67.16318687 0.30937494 67.76375002 -2.3125 68.8125 C-2.3125 69.4725 -2.3125 70.1325 -2.3125 70.8125 C-16.73011479 78.38579766 -28.83122995 82.91612741 -45.3125 78 C-49.51474311 76.60103896 -53.38288568 74.85332648 -57.3125 72.8125 C-57.3125 72.1525 -57.3125 71.4925 -57.3125 70.8125 C-58.9625 70.1525 -60.6125 69.4925 -62.3125 68.8125 C-62.3125 68.1525 -62.3125 67.4925 -62.3125 66.8125 C-62.9725 66.8125 -63.6325 66.8125 -64.3125 66.8125 C-72.9202044 58.00285532 -77.21351638 45.54197652 -77.625 33.4375 C-77.40579747 23.6144864 -73.9850758 15.32656104 -69.3125 6.8125 C-68.6525 6.8125 -67.9925 6.8125 -67.3125 6.8125 C-67.065 6.23371094 -66.8175 5.65492187 -66.5625 5.05859375 C-62.47547013 -2.28528805 -54.03718795 -7.4159621 -46.3125 -10.1875 C-29.53001809 -14.81485979 -13.25938558 -11.12592053 0 0 Z " fill="#D33130" transform="translate(280.3125,101.1875)"/>
<path d="M0 0 C7.47168018 0.5031074 11.64580356 5.20940319 17 10 C17.75152344 10.65613281 18.50304687 11.31226563 19.27734375 11.98828125 C27.16539169 19.30100132 31.52425508 28.95193741 35 39 C35.54140625 40.5159375 35.54140625 40.5159375 36.09375 42.0625 C37.52477228 47.20255489 37.28950999 52.45566147 37.25 57.75 C37.26160156 59.28140625 37.26160156 59.28140625 37.2734375 60.84375 C37.23361767 76.53276467 37.23361767 76.53276467 34 83 C33.8445269 84.49714833 33.72480892 85.99811346 33.625 87.5 C32.60065835 98.43681696 28.61077005 107.6281073 22.0859375 116.34765625 C20.80739418 118.13544513 20.80739418 118.13544513 20 121.0625 C19.05239358 123.84609385 18.31831546 124.98697901 16.4375 127.125 C13.90859432 129.6660162 13.90859432 129.6660162 13.5 132.125 C12.67853411 135.20549709 10.58890309 136.33570515 8 138 C7.01 137.67 6.02 137.34 5 137 C5.0314209 135.91452881 5.0314209 135.91452881 5.06347656 134.80712891 C5.71214801 108.90543187 0.63185738 88.85981911 -8.75 64.9375 C-14.92857393 49.04393152 -17.51638198 31.73555042 -13 15 C-11.5 11.8125 -11.5 11.8125 -10 10 C-9.34 10 -8.68 10 -8 10 C-8 9.34 -8 8.68 -8 8 C-5.5 6.375 -5.5 6.375 -3 5 C-2.67 5.66 -2.34 6.32 -2 7 C-1.855625 6.030625 -1.71125 5.06125 -1.5625 4.0625 C-1 1 -1 1 0 0 Z " fill="#432225" transform="translate(249,207)"/>
<path d="M0 0 C1.175625 0.5259375 1.175625 0.5259375 2.375 1.0625 C3.24125 1.371875 4.1075 1.68125 5 2 C5.66 1.67 6.32 1.34 7 1 C7.75570454 3.72434343 8.14708282 6.22389674 8.24609375 9.046875 C8.29540039 10.1915625 8.29540039 10.1915625 8.34570312 11.359375 C8.40629633 12.93737668 8.4636548 14.51550632 8.51757812 16.09375 C8.78267479 22.05592407 9.41737762 27.83475525 12.125 33.25 C13 35 13 35 13 39 C13.66 39 14.32 39 15 39 C15.61875 39.78375 16.2375 40.5675 16.875 41.375 C18.88852174 43.86229156 20.08642859 44.85538266 23 46 C23 46.66 23 47.32 23 48 C35.00868045 51.6949786 49.06293218 53.5724533 60.6875 47.625 C61.450625 47.08875 62.21375 46.5525 63 46 C64.051875 45.319375 65.10375 44.63875 66.1875 43.9375 C68.98571189 42.13506306 68.98571189 42.13506306 71 40 C71 41.32 71 42.64 71 44 C71.66 44 72.32 44 73 44 C73 44.66 73 45.32 73 46 C72.34 46 71.68 46 71 46 C71.185625 46.928125 71.37125 47.85625 71.5625 48.8125 C72 52 72 52 71 55 C70.34 55 69.68 55 69 55 C69 55.66 69 56.32 69 57 C54.58238521 64.57329766 42.48127005 69.10362741 26 64.1875 C21.79775689 62.78853896 17.92961432 61.04082648 14 59 C14 58.34 14 57.68 14 57 C12.35 56.34 10.7 55.68 9 55 C9 54.34 9 53.68 9 53 C8.34 53 7.68 53 7 53 C-1.69462344 44.10139713 -5.91331133 31.58352005 -6.3125 19.375 C-6.22393119 14.52415442 -5.38449833 11.21872782 -3 7 C-2.34 6.67 -1.68 6.34 -1 6 C-0.34227572 2.97065509 -0.34227572 2.97065509 0 0 Z " fill="#442729" transform="translate(209,115)"/>
<path d="M0 0 C0.65693848 0.34619385 1.31387695 0.6923877 1.99072266 1.04907227 C3.03607178 1.58866577 3.03607178 1.58866577 4.10253906 2.13916016 C24.59563988 12.92712737 39.08929189 28.84571295 47.26806641 50.47094727 C50.33668496 61.16161834 50.36290306 71.48596301 49.11572266 82.42407227 C48.78572266 82.42407227 48.45572266 82.42407227 48.11572266 82.42407227 C47.98294922 81.30387695 47.85017578 80.18368164 47.71337891 79.02954102 C47.53515696 77.55686497 47.35676255 76.0842098 47.17822266 74.61157227 C47.09121094 73.87358398 47.00419922 73.1355957 46.91455078 72.37524414 C46.53355719 69.25674106 46.11202891 66.41299104 45.11572266 63.42407227 C44.45572266 63.09407227 43.79572266 62.76407227 43.11572266 62.42407227 C43.42509766 60.75344727 43.42509766 60.75344727 43.74072266 59.04907227 C43.92634766 57.25469727 43.92634766 57.25469727 44.11572266 55.42407227 C43.45572266 54.76407227 42.79572266 54.10407227 42.11572266 53.42407227 C41.85697711 51.4187943 41.60206571 49.41250277 41.40087891 47.40063477 C41.07065864 45.11171073 40.33923019 43.38168433 39.11572266 41.42407227 C37.13572266 42.08407227 35.15572266 42.74407227 33.11572266 43.42407227 C31.36944787 40.80466009 30.72849877 39.3858235 30.11572266 36.42407227 C29.12572266 37.08407227 28.13572266 37.74407227 27.11572266 38.42407227 C26.45572266 38.09407227 25.79572266 37.76407227 25.11572266 37.42407227 C23.89011657 32.36178625 24.00275971 27.49423679 25.11572266 22.42407227 C25.11572266 21.76407227 25.11572266 21.10407227 25.11572266 20.42407227 C24.45572266 20.42407227 23.79572266 20.42407227 23.11572266 20.42407227 C22.62072266 21.90907227 22.62072266 21.90907227 22.11572266 23.42407227 C21.62072266 21.44407227 21.62072266 21.44407227 21.11572266 19.42407227 C19.13572266 20.41407227 19.13572266 20.41407227 17.11572266 21.42407227 C16.45572266 20.76407227 15.79572266 20.10407227 15.11572266 19.42407227 C14.45572266 21.40407227 13.79572266 23.38407227 13.11572266 25.42407227 C14.10572266 25.75407227 15.09572266 26.08407227 16.11572266 26.42407227 C15.78572266 27.08407227 15.45572266 27.74407227 15.11572266 28.42407227 C16.10572266 28.91907227 16.10572266 28.91907227 17.11572266 29.42407227 C15.79572266 31.73407227 14.47572266 34.04407227 13.11572266 36.42407227 C11.79572266 36.09407227 10.47572266 35.76407227 9.11572266 35.42407227 C9.11572266 33.11407227 9.11572266 30.80407227 9.11572266 28.42407227 C6.64072266 28.91907227 6.64072266 28.91907227 4.11572266 29.42407227 C2.33074427 27.13929993 1.10454251 25.38183805 1.13916016 22.41625977 C1.41292534 20.41111475 1.76219173 18.41670113 2.11572266 16.42407227 C2.11572266 15.43407227 2.11572266 14.44407227 2.11572266 13.42407227 C4.09572266 13.09407227 6.07572266 12.76407227 8.11572266 12.42407227 C8.11572266 11.76407227 8.11572266 11.10407227 8.11572266 10.42407227 C7.51759766 10.36219727 6.91947266 10.30032227 6.30322266 10.23657227 C3.26271458 9.1072407 2.74907481 7.14632585 1.11572266 4.42407227 C-0.680777 3.32871917 -0.680777 3.32871917 -2.88427734 3.42407227 C-3.89490234 3.77469727 -4.90552734 4.12532227 -5.94677734 4.48657227 C-6.91615234 4.79594727 -7.88552734 5.10532227 -8.88427734 5.42407227 C-9.87427734 4.76407227 -10.86427734 4.10407227 -11.88427734 3.42407227 C-11.88427734 2.76407227 -11.88427734 2.10407227 -11.88427734 1.42407227 C-14.95881294 2.20046547 -14.95881294 2.20046547 -16.88427734 4.42407227 C-17.68865234 4.56844727 -18.49302734 4.71282227 -19.32177734 4.86157227 C-22.21433231 5.49652336 -23.14116856 6.0708754 -24.88427734 8.42407227 C-25.59875377 10.52740118 -25.59875377 10.52740118 -25.88427734 12.42407227 C-27.20427734 12.75407227 -28.52427734 13.08407227 -29.88427734 13.42407227 C-30.54427734 15.73407227 -31.20427734 18.04407227 -31.88427734 20.42407227 C-32.54427734 20.09407227 -33.20427734 19.76407227 -33.88427734 19.42407227 C-35.98248949 19.82345993 -35.98248949 19.82345993 -37.88427734 20.42407227 C-37.88427734 21.08407227 -37.88427734 21.74407227 -37.88427734 22.42407227 C-38.54427734 22.42407227 -39.20427734 22.42407227 -39.88427734 22.42407227 C-40.21427734 23.74407227 -40.54427734 25.06407227 -40.88427734 26.42407227 C-41.21427734 25.76407227 -41.54427734 25.10407227 -41.88427734 24.42407227 C-36.65760349 11.90534538 -28.42806297 4.19170097 -16.88427734 -2.57592773 C-10.89421799 -4.57261418 -5.43171787 -2.70771746 0 0 Z M7.11572266 18.42407227 C7.11572266 19.74407227 7.11572266 21.06407227 7.11572266 22.42407227 C7.77572266 22.75407227 8.43572266 23.08407227 9.11572266 23.42407227 C9.44572266 22.10407227 9.77572266 20.78407227 10.11572266 19.42407227 C9.12572266 19.09407227 8.13572266 18.76407227 7.11572266 18.42407227 Z M27.11572266 29.42407227 C26.78572266 30.08407227 26.45572266 30.74407227 26.11572266 31.42407227 C26.77572266 32.08407227 27.43572266 32.74407227 28.11572266 33.42407227 C28.44572266 32.10407227 28.77572266 30.78407227 29.11572266 29.42407227 C28.45572266 29.42407227 27.79572266 29.42407227 27.11572266 29.42407227 Z " fill="#EF4342" transform="translate(278.88427734375,194.575927734375)"/>
<path d="M0 0 C0.99 0 1.98 0 3 0 C3.17015625 0.72445312 3.3403125 1.44890625 3.515625 2.1953125 C5.59333148 11.45072988 5.59333148 11.45072988 11.859375 18.140625 C13.88174846 19.15941464 15.9319288 20.07858214 18 21 C19.67888441 21.97934924 21.35178756 22.96986723 23 24 C20.84196238 26.41430459 19.05309531 27.5726073 16 28.625 C15.319375 28.86476562 14.63875 29.10453125 13.9375 29.3515625 C12.29207075 29.90225052 10.64609394 30.45130202 9 31 C9 31.66 9 32.32 9 33 C8.34 33 7.68 33 7 33 C6.86722656 33.54140625 6.73445313 34.0828125 6.59765625 34.640625 C5.91051995 37.3532415 5.17649541 40.05106023 4.4375 42.75 C4.03337891 44.22726563 4.03337891 44.22726563 3.62109375 45.734375 C3.41613281 46.48203125 3.21117187 47.2296875 3 48 C2.01 48 1.02 48 0 48 C-0.23074219 47.20335937 -0.46148437 46.40671875 -0.69921875 45.5859375 C-3.29478344 36.81895952 -3.29478344 36.81895952 -9 30 C-11.85955195 28.80954275 -14.69931925 27.82733835 -17.671875 26.95703125 C-18.44015625 26.64121094 -19.2084375 26.32539063 -20 26 C-20.33 25.01 -20.66 24.02 -21 23 C-20.19175781 22.70867187 -19.38351562 22.41734375 -18.55078125 22.1171875 C-9.80516539 18.8596359 -9.80516539 18.8596359 -4 12 C-3.05228201 9.1165176 -2.26438718 6.24948197 -1.578125 3.29296875 C-1 1 -1 1 0 0 Z " fill="#BF2D2B" transform="translate(329,154)"/>
<path d="M0 0 C0.66 0 1.32 0 2 0 C2.17015625 0.65226563 2.3403125 1.30453125 2.515625 1.9765625 C4.63262523 9.61127609 7.16089909 15.49241077 14 20 C16.63774603 21.14449688 19.2718278 22.07519586 22 23 C21.505 24.485 21.505 24.485 21 26 C19.0530104 26.72599612 17.10338852 27.44633067 15.13671875 28.1171875 C10.68253796 29.95748889 7.66243816 33.00634276 5 37 C4.40678131 38.88033997 3.86904181 40.77870208 3.375 42.6875 C3.11460937 43.68136719 2.85421875 44.67523438 2.5859375 45.69921875 C2.39257812 46.45847656 2.19921875 47.21773437 2 48 C0.515 47.505 0.515 47.505 -1 47 C-1.84375 45.109375 -1.84375 45.109375 -2.5 42.75 C-3.59146055 39.1175731 -4.95492453 36.21369002 -7 33 C-7 32.34 -7 31.68 -7 31 C-7.639375 30.7525 -8.27875 30.505 -8.9375 30.25 C-12.99988351 28.59188428 -16.99724906 26.7964416 -21 25 C-21 24.34 -21 23.68 -21 23 C-20.20335937 22.731875 -19.40671875 22.46375 -18.5859375 22.1875 C-11.40602167 19.532154 -6.36915514 17.10424847 -3 10 C-2.26105521 7.5936926 -1.72057209 5.26982291 -1.32421875 2.78515625 C-1 1 -1 1 0 0 Z " fill="#583637" transform="translate(168,154)"/>
<path d="M0 0 C-0.33 1.32 -0.66 2.64 -1 4 C-0.34 4 0.32 4 1 4 C1.33 4.66 1.66 5.32 2 6 C2.99 5.67 3.98 5.34 5 5 C4 8 4 8 2 9 C0.86649466 11.01669827 0.86649466 11.01669827 0 13 C-0.66 13 -1.32 13 -2 13 C-1.979375 14.11375 -1.95875 15.2275 -1.9375 16.375 C-2 20 -2 20 -3 22 C-2.72057545 23.67654729 -2.39171753 25.34608154 -2 27 C-3.32 27.33 -4.64 27.66 -6 28 C-6.33 30.31 -6.66 32.62 -7 35 C-6.34 35.33 -5.68 35.66 -5 36 C-5.185625 36.7425 -5.37125 37.485 -5.5625 38.25 C-5.99203108 40.94990963 -5.85122974 42.44631077 -5 45 C-4.34 45 -3.68 45 -3 45 C-3 46.65 -3 48.3 -3 50 C-2.34 50 -1.68 50 -1 50 C-1 50.99 -1 51.98 -1 53 C-0.13375 53.0928125 -0.13375 53.0928125 0.75 53.1875 C3 54 3 54 4.875 56.4375 C7.40924086 59.49349633 9.2110132 60.03259911 13 61 C13.99 61.33 14.98 61.66 16 62 C15.67 62.66 15.34 63.32 15 64 C26.79050175 64.85576222 36.61169031 62.35840489 46 55 C46.495 54.01 46.495 54.01 47 53 C47.99 53 48.98 53 50 53 C50.33 52.01 50.66 51.02 51 50 C51.66 50 52.32 50 53 50 C52.835 50.598125 52.67 51.19625 52.5 51.8125 C51.8885876 54.11344336 51.8885876 54.11344336 52 57 C41.60778575 65.05396604 31.04698961 67.05972384 18 66 C13.86307089 64.96576772 9.94297386 63.6176303 6 62 C6 61.34 6 60.68 6 60 C5.236875 59.731875 4.47375 59.46375 3.6875 59.1875 C1.11011382 58.04865495 -0.26954864 57.18583329 -2 55 C-2 54.34 -2 53.68 -2 53 C-2.66 53 -3.32 53 -4 53 C-4.65365399 51.46163292 -5.29753603 49.91911234 -5.9375 48.375 C-6.29714844 47.51648438 -6.65679687 46.65796875 -7.02734375 45.7734375 C-9.34223848 39.17273366 -9.30687213 32.28662894 -9.60546875 25.36914062 C-9.64285156 24.59376953 -9.68023437 23.81839844 -9.71875 23.01953125 C-9.74904297 22.31932861 -9.77933594 21.61912598 -9.81054688 20.89770508 C-9.9518412 18.77710574 -9.9518412 18.77710574 -11 16 C-11.99 16 -12.98 16 -14 16 C-14.66 15.67 -15.32 15.34 -16 15 C-16.33 16.98 -16.66 18.96 -17 21 C-18.32 21.33 -19.64 21.66 -21 22 C-20.39644592 18.14974121 -19.23227397 15.13898841 -17.4375 11.6875 C-16.98246094 10.80449219 -16.52742187 9.92148438 -16.05859375 9.01171875 C-15.70925781 8.34785156 -15.35992187 7.68398437 -15 7 C-14.34 7 -13.68 7 -13 7 C-12.731875 6.401875 -12.46375 5.80375 -12.1875 5.1875 C-10.4087023 1.9107674 -9.12934512 0.33880354 -5.5 -0.75 C-3 -1 -3 -1 0 0 Z " fill="#A02927" transform="translate(226,101)"/>
<path d="M0 0 C0.66666667 3.33333333 1.33333333 6.66666667 2 10 C3.99983534 9.20882096 3.99983534 9.20882096 6 8 C6.33 7.01 6.66 6.02 7 5 C10.375 3.25 10.375 3.25 14 2 C14.99 2.33 15.98 2.66 17 3 C17 3.99 17 4.98 17 6 C-6.20302803 18.18483036 -29.84294802 24.40472238 -56 26 C-56.33 25.01 -56.66 24.02 -57 23 C-55.87464844 22.70867187 -54.74929687 22.41734375 -53.58984375 22.1171875 C-36.61424741 17.62583617 -20.13031112 11.55372547 -5.25 2.0625 C-2 0 -2 0 0 0 Z " fill="#252D31" transform="translate(223,382)"/>
<path d="M0 0 C0.99 0 1.98 0 3 0 C3.24234375 0.68707031 3.4846875 1.37414062 3.734375 2.08203125 C4.06953125 2.98308594 4.4046875 3.88414062 4.75 4.8125 C5.23726563 6.15248047 5.23726563 6.15248047 5.734375 7.51953125 C7.75040045 11.47069224 10.15808921 12.69237875 14.25 14.1875 C15.1575 14.455625 16.065 14.72375 17 15 C17 15.99 17 16.98 17 18 C15.56328432 18.64757625 14.12559584 19.29299453 12.6875 19.9375 C11.88699219 20.29714844 11.08648437 20.65679687 10.26171875 21.02734375 C8 22 8 22 5 23 C4.34 26.63 3.68 30.26 3 34 C1.68 33.67 0.36 33.34 -1 33 C-1.87109375 31.07421875 -1.87109375 31.07421875 -2.4375 28.6875 C-3.71882179 24.34753911 -4.96906062 22.34356941 -9 20 C-12.17921787 18.74443113 -12.17921787 18.74443113 -15 18 C-15 17.01 -15 16.02 -15 15 C-14.07767578 14.74476563 -14.07767578 14.74476563 -13.13671875 14.484375 C-8.2633678 13.08831328 -8.2633678 13.08831328 -4.125 10.3125 C-2.49005617 6.95178212 -1.23496418 3.52846908 0 0 Z " fill="#2A1C1D" transform="translate(301,352)"/>
<path d="M0 0 C1.60372657 4.00931642 0.38691773 7.05823382 -1 11 C-1.66 11.66 -2.32 12.32 -3 13 C-3.67441131 14.6635479 -4.3400321 16.33066942 -5 18 C-6 19.66666667 -7 21.33333333 -8 23 C-8.495 24.2684375 -8.495 24.2684375 -9 25.5625 C-10.05445471 28.13273334 -11.27503638 29.82782359 -13 32 C-15.29582713 35.1184362 -17.54263889 38.21867477 -19.5 41.5625 C-21.38666534 44.62833117 -23.69714111 47.23656933 -26 50 C-26.474375 50.845625 -26.94875 51.69125 -27.4375 52.5625 C-29.45900629 55.71604982 -32.13017521 57.61865602 -35 60 C-35.31582031 60.65097656 -35.63164062 61.30195313 -35.95703125 61.97265625 C-37.18985175 64.36903767 -38.43391377 65.32989138 -40.625 66.875 C-41.3365625 67.38546875 -42.048125 67.8959375 -42.78125 68.421875 C-43.87953125 69.20304687 -43.87953125 69.20304687 -45 70 C-46.37754494 71.0382988 -47.75262197 72.07988135 -49.125 73.125 C-50.41502165 74.08554657 -51.70659934 75.04400821 -53 76 C-53.85658203 76.64388672 -53.85658203 76.64388672 -54.73046875 77.30078125 C-56.3125 78.4375 -56.3125 78.4375 -59 80 C-59.99 79.67 -60.98 79.34 -62 79 C-61.5020163 75.26512223 -61.12508244 73.18762365 -59 70 C-58.34 70 -57.68 70 -57 70 C-56.87625 69.401875 -56.7525 68.80375 -56.625 68.1875 C-56 66 -56 66 -54 63 C-52.68 63.66 -51.36 64.32 -50 65 C-50.66 65.99 -51.32 66.98 -52 68 C-51.34 68.33 -50.68 68.66 -50 69 C-50 69.33 -50 69.66 -50 70 C-49.34 70 -48.68 70 -48 70 C-47.773125 69.4225 -47.54625 68.845 -47.3125 68.25 C-46 66 -46 66 -43.5 64.0625 C-40.70196627 61.75412217 -40.28891626 60.30284791 -39 57 C-36.5 54.1875 -36.5 54.1875 -34 52 C-33.34 52 -32.68 52 -32 52 C-31.731875 51.4225 -31.46375 50.845 -31.1875 50.25 C-30 48 -30 48 -28.375 45.9375 C-26.7106265 43.9882168 -26.7106265 43.9882168 -27 41 C-26.38125 40.7525 -25.7625 40.505 -25.125 40.25 C-22.64931313 38.79371361 -22.04874998 37.62187494 -21 35 C-20.34 35 -19.68 35 -19 35 C-18.690625 34.38125 -18.38125 33.7625 -18.0625 33.125 C-17.375 31.75 -16.6875 30.375 -16 29 C-15.01 29 -14.02 29 -13 29 C-12.9175 28.29875 -12.835 27.5975 -12.75 26.875 C-12 24 -12 24 -10.0625 21.1875 C-7.61088118 17.39863454 -6.90848194 14.39099606 -6 10 C-5.34 10 -4.68 10 -4 10 C-3.79503906 9.36191406 -3.59007812 8.72382813 -3.37890625 8.06640625 C-3.10949219 7.24011719 -2.84007812 6.41382813 -2.5625 5.5625 C-2.29566406 4.73878906 -2.02882813 3.91507812 -1.75390625 3.06640625 C-1 1 -1 1 0 0 Z M-60 76 C-60 76.99 -60 77.98 -60 79 C-59.34 78.01 -58.68 77.02 -58 76 C-58.66 76 -59.32 76 -60 76 Z " fill="#4B1C1A" transform="translate(303,288)"/>
<path d="M0 0 C0.66 0 1.32 0 2 0 C2.25523437 0.97839844 2.25523437 0.97839844 2.515625 1.9765625 C4.63262523 9.61127609 7.16089909 15.49241077 14 20 C16.63774603 21.14449688 19.2718278 22.07519586 22 23 C21 26 21 26 19.29296875 26.87890625 C18.59816406 27.10449219 17.90335938 27.33007812 17.1875 27.5625 C14.33130718 28.5367848 11.66186798 29.55815485 9 31 C9 30.34 9 29.68 9 29 C8.113125 28.9175 7.22625 28.835 6.3125 28.75 C2.49275928 27.88515305 0.68156366 26.8393027 -2 24 C-2.3125 21.25 -2.3125 21.25 -2 19 C-2.99 18.67 -3.98 18.34 -5 18 C-5.875 16.1875 -5.875 16.1875 -6 14 C-5.566875 13.443125 -5.13375 12.88625 -4.6875 12.3125 C-2.50216398 9.31778027 -2.10166805 6.52736119 -1.4296875 2.92578125 C-1 1 -1 1 0 0 Z " fill="#832020" transform="translate(168,154)"/>
<path d="M0 0 C1.36701593 0.68939464 2.7277454 1.39139076 4.08203125 2.10546875 C4.76716797 2.44900391 5.45230469 2.79253906 6.15820312 3.14648438 C10.10475787 5.17104037 13.5187376 7.37602084 16.89453125 10.29296875 C14.58453125 9.96296875 12.27453125 9.63296875 9.89453125 9.29296875 C9.89453125 8.63296875 9.89453125 7.97296875 9.89453125 7.29296875 C8.90453125 7.29296875 7.91453125 7.29296875 6.89453125 7.29296875 C6.89453125 6.63296875 6.89453125 5.97296875 6.89453125 5.29296875 C1.30236483 4.32880213 -1.69319007 4.40496456 -7.10546875 6.29296875 C-8.09546875 5.63296875 -9.08546875 4.97296875 -10.10546875 4.29296875 C-10.10546875 3.63296875 -10.10546875 2.97296875 -10.10546875 2.29296875 C-13.18000435 3.06936195 -13.18000435 3.06936195 -15.10546875 5.29296875 C-15.90984375 5.43734375 -16.71421875 5.58171875 -17.54296875 5.73046875 C-20.43552372 6.36541984 -21.36235996 6.93977189 -23.10546875 9.29296875 C-23.81994518 11.39629766 -23.81994518 11.39629766 -24.10546875 13.29296875 C-25.42546875 13.62296875 -26.74546875 13.95296875 -28.10546875 14.29296875 C-28.76546875 16.60296875 -29.42546875 18.91296875 -30.10546875 21.29296875 C-30.76546875 20.96296875 -31.42546875 20.63296875 -32.10546875 20.29296875 C-34.2036809 20.69235642 -34.2036809 20.69235642 -36.10546875 21.29296875 C-36.10546875 21.95296875 -36.10546875 22.61296875 -36.10546875 23.29296875 C-36.76546875 23.29296875 -37.42546875 23.29296875 -38.10546875 23.29296875 C-38.43546875 24.61296875 -38.76546875 25.93296875 -39.10546875 27.29296875 C-39.43546875 26.63296875 -39.76546875 25.97296875 -40.10546875 25.29296875 C-34.8787949 12.77424186 -26.64925438 5.06059746 -15.10546875 -1.70703125 C-9.82351142 -3.46768369 -4.93216194 -2.26338129 0 0 Z " fill="#EB4040" transform="translate(277.10546875,193.70703125)"/>
<path d="M0 0 C8.62678349 8.2661784 14.54295761 18.1336471 14.859375 30.21875 C14.90166481 34.42069998 14.81904957 38.61265807 14.6875 42.8125 C14.0275 41.8225 13.3675 40.8325 12.6875 39.8125 C11.36368483 38.13826317 10.03173339 36.47038785 8.6875 34.8125 C9.1825 34.27625 9.6775 33.74 10.1875 33.1875 C12.06239544 30.21891555 11.92251425 28.25937573 11.6875 24.8125 C10.6975 25.3075 10.6975 25.3075 9.6875 25.8125 C9.790625 24.6575 9.89375 23.5025 10 22.3125 C10.04055011 17.75466741 8.38690535 15.11000412 5.78125 11.4765625 C4.6875 9.8125 4.6875 9.8125 4.6875 7.8125 C3.3675 7.8125 2.0475 7.8125 0.6875 7.8125 C0.1925 6.3275 0.1925 6.3275 -0.3125 4.8125 C-1.94881892 3.76357762 -3.61735863 2.76343297 -5.3125 1.8125 C-5.9725 1.1525 -6.6325 0.4925 -7.3125 -0.1875 C-8.6278341 -0.88901152 -9.96367592 -1.55275925 -11.3125 -2.1875 C-12.64583333 -2.85416667 -13.97916667 -3.52083333 -15.3125 -4.1875 C-15.3125 -4.8475 -15.3125 -5.5075 -15.3125 -6.1875 C-15.9415625 -6.15269531 -16.570625 -6.11789063 -17.21875 -6.08203125 C-22.53861148 -5.91378262 -26.47486535 -6.34320705 -31.3515625 -8.453125 C-34.60994095 -9.67339422 -37.86018117 -9.87925725 -41.3125 -10.1875 C-41.3125 -10.5175 -41.3125 -10.8475 -41.3125 -11.1875 C-25.64031787 -13.57315439 -12.20888507 -10.24444792 0 0 Z " fill="#ED5653" transform="translate(280.3125,101.1875)"/>
<path d="M0 0 C0.495 0.99 0.495 0.99 1 2 C0.38125 2.433125 -0.2375 2.86625 -0.875 3.3125 C-3.2197245 4.99740483 -3.2197245 4.99740483 -5 8 C-5 7.34 -5 6.68 -5 6 C-8.3270336 8.2180224 -8.88292386 9.27641285 -10 13 C-9.505 13.99 -9.505 13.99 -9 15 C-20.57891748 17.91905483 -32.12478966 19.05317891 -44 20 C-44.33 19.01 -44.66 18.02 -45 17 C-43.87464844 16.70867187 -42.74929687 16.41734375 -41.58984375 16.1171875 C-26.9250622 12.23646786 -13.4701216 7.07369514 0 0 Z " fill="#424649" transform="translate(211,388)"/>
<path d="M0 0 C1.41377341 2.63904371 2.37240135 5.07120629 3 8 C3.66 8 4.32 8 5 8 C5 9.65 5 11.3 5 13 C5.66 13 6.32 13 7 13 C7 13.99 7 14.98 7 16 C7.86625 16.0928125 7.86625 16.0928125 8.75 16.1875 C11 17 11 17 12.875 19.4375 C15.40924086 22.49349633 17.2110132 23.03259911 21 24 C21.99 24.33 22.98 24.66 24 25 C23.67 25.66 23.34 26.32 23 27 C34.79050175 27.85576222 44.61169031 25.35840489 54 18 C54.33 17.34 54.66 16.68 55 16 C55.99 16 56.98 16 58 16 C58.33 15.01 58.66 14.02 59 13 C59.66 13 60.32 13 61 13 C60.835 13.598125 60.67 14.19625 60.5 14.8125 C59.8885876 17.11344336 59.8885876 17.11344336 60 20 C49.60778575 28.05396604 39.04698961 30.05972384 26 29 C21.86307089 27.96576772 17.94297386 26.6176303 14 25 C14 24.34 14 23.68 14 23 C13.236875 22.731875 12.47375 22.46375 11.6875 22.1875 C9.11011382 21.04865495 7.73045136 20.18583329 6 18 C6 17.34 6 16.68 6 16 C5.34 16 4.68 16 4 16 C-0.59225513 5.62642369 -0.59225513 5.62642369 0 0 Z " fill="#852424" transform="translate(218,138)"/>
<path d="M0 0 C-0.66 1.32 -1.32 2.64 -2 4 C-2.66 4 -3.32 4 -4 4 C-4 4.99 -4 5.98 -4 7 C-4.66 7 -5.32 7 -6 7 C-6.2475 7.825 -6.495 8.65 -6.75 9.5 C-8.18704811 13.52373471 -10.02354515 17.21979024 -12 21 C-12.33 20.34 -12.66 19.68 -13 19 C-13.66 18.67 -14.32 18.34 -15 18 C-14.01 18 -13.02 18 -12 18 C-12 17.34 -12 16.68 -12 16 C-12.66 16 -13.32 16 -14 16 C-14.66 15.01 -15.32 14.02 -16 13 C-16.598125 13.20625 -17.19625 13.4125 -17.8125 13.625 C-20 14 -20 14 -23 12 C-23.99 12.495 -23.99 12.495 -25 13 C-25.66 12.34 -26.32 11.68 -27 11 C-5.42487047 -1.80829016 -5.42487047 -1.80829016 0 0 Z " fill="#485458" transform="translate(232,192)"/>
<path d="M0 0 C2 1 2 1 3.125 3.3125 C5.3941097 6.56489057 7.45467414 7.48035025 10.9921875 9.0859375 C13.44912224 10.20446421 15.71285981 11.57053738 18 13 C15.84196238 15.41430459 14.05309531 16.5726073 11 17.625 C10.319375 17.86476562 9.63875 18.10453125 8.9375 18.3515625 C7.29207075 18.90225052 5.64609394 19.45130202 4 20 C4 20.66 4 21.32 4 22 C3.34 22 2.68 22 2 22 C1.86722656 22.54140625 1.73445313 23.0828125 1.59765625 23.640625 C0.91051995 26.3532415 0.17649541 29.05106023 -0.5625 31.75 C-0.83191406 32.73484375 -1.10132813 33.7196875 -1.37890625 34.734375 C-1.68634766 35.85585937 -1.68634766 35.85585937 -2 37 C-2.99 37 -3.98 37 -5 37 C-5.5345256 35.75579353 -6.05208611 34.50429064 -6.5625 33.25 C-6.85253906 32.55390625 -7.14257812 31.8578125 -7.44140625 31.140625 C-8.07831803 28.69987216 -7.80248831 27.3596345 -7 25 C-6.67 26.32 -6.34 27.64 -6 29 C-5.34 29 -4.68 29 -4 29 C-4 28.34 -4 27.68 -4 27 C-3.34 27 -2.68 27 -2 27 C-1.67 25.35 -1.34 23.7 -1 22 C-0.34 22 0.32 22 1 22 C1.309375 21.38125 1.61875 20.7625 1.9375 20.125 C3.66437872 16.67124256 4.4402414 15.60763292 8 14 C7.96877057 12.03243548 7.96877057 12.03243548 7 10 C4.00384054 8.6954344 4.00384054 8.6954344 1 8 C0.67 5.36 0.34 2.72 0 0 Z " fill="#C93C37" transform="translate(334,165)"/>
<path d="M0 0 C0.66 0 1.32 0 2 0 C2.18175781 0.61746094 2.36351562 1.23492187 2.55078125 1.87109375 C3.07647672 3.64228309 3.60809696 5.41172097 4.14453125 7.1796875 C4.69486092 8.99401636 5.23479512 10.81154825 5.76171875 12.6328125 C6.12716797 13.83550781 6.12716797 13.83550781 6.5 15.0625 C6.7165625 15.79597656 6.933125 16.52945313 7.15625 17.28515625 C7.4346875 17.85105469 7.713125 18.41695312 8 19 C8.99 19.33 9.98 19.66 11 20 C11 20.66 11 21.32 11 22 C9.35 22 7.7 22 6 22 C5.67 21.01 5.34 20.02 5 19 C4.67 19.33 4.34 19.66 4 20 C1.30917128 19.82364548 -1.32851446 19.38164079 -4 19 C-5.1875 16.75 -5.1875 16.75 -6 14 C-5.03126968 12.64377755 -4.02323436 11.31558703 -3 10 C-2.34682309 7.65600437 -1.87587964 5.31721455 -1.4296875 2.92578125 C-1 1 -1 1 0 0 Z " fill="#872021" transform="translate(168,154)"/>
<path d="M0 0 C0.33 0.99 0.66 1.98 1 3 C1.66 3.33 2.32 3.66 3 4 C3.12375 5.1446875 3.12375 5.1446875 3.25 6.3125 C3.79822948 9.28769699 3.79822948 9.28769699 6.8125 11.25 C9.34324223 12.6394271 11.18755139 13.5673156 14 14 C13.67 14.66 13.34 15.32 13 16 C12.01 15.67 11.02 15.34 10 15 C9.67 15.66 9.34 16.32 9 17 C7.0625 16.1875 7.0625 16.1875 5 15 C4.67 14.01 4.34 13.02 4 12 C-0.00044622 11.86214479 -0.00044622 11.86214479 -3.91015625 12.55078125 C-6.43067933 13.09257593 -8.1769618 12.79775379 -10.6875 12.25 C-11.47511719 12.09015625 -12.26273438 11.9303125 -13.07421875 11.765625 C-13.70972656 11.51296875 -14.34523437 11.2603125 -15 11 C-15.33 10.01 -15.66 9.02 -16 8 C-15.18015625 7.67386719 -14.3603125 7.34773437 -13.515625 7.01171875 C-12.43796875 6.57472656 -11.3603125 6.13773438 -10.25 5.6875 C-9.18265625 5.25824219 -8.1153125 4.82898438 -7.015625 4.38671875 C-4.3347085 3.15391388 -2.2616808 1.87192513 0 0 Z " fill="#481C1F" transform="translate(163,169)"/>
<path d="M0 0 C0.99 0 1.98 0 3 0 C3.24234375 0.68707031 3.4846875 1.37414062 3.734375 2.08203125 C4.06953125 2.98308594 4.4046875 3.88414062 4.75 4.8125 C5.07484375 5.70582031 5.3996875 6.59914063 5.734375 7.51953125 C7.75040045 11.47069224 10.15808921 12.69237875 14.25 14.1875 C15.1575 14.455625 16.065 14.72375 17 15 C17 15.99 17 16.98 17 18 C15.58774074 18.67595315 14.16997095 19.34040059 12.75 20 C11.56664062 20.556875 11.56664062 20.556875 10.359375 21.125 C8 22 8 22 4 22 C4.04125 21.071875 4.0825 20.14375 4.125 19.1875 C4.27136339 15.84190281 4.27136339 15.84190281 2 13 C2 11.68 2 10.36 2 9 C0.35 9.33 -1.3 9.66 -3 10 C-2.01 6.7 -1.02 3.4 0 0 Z " fill="#402727" transform="translate(301,352)"/>
<path d="M0 0 C4.28109293 3.80950954 6.49837347 7.42352709 8.6875 12.6875 C8.98930176 13.40010986 9.29110352 14.11271973 9.60205078 14.84692383 C11.79209789 20.167592 13.37906905 25.25863845 14 31 C14.17982422 32.57394531 14.17982422 32.57394531 14.36328125 34.1796875 C14.98352773 40.65117488 14.98008402 46.57500479 14 53 C13.67 53 13.34 53 13 53 C12.80083984 51.31970703 12.80083984 51.31970703 12.59765625 49.60546875 C12.41943431 48.13279271 12.24103989 46.66013753 12.0625 45.1875 C11.97548828 44.44951172 11.88847656 43.71152344 11.79882812 42.95117188 C11.41783454 39.83266879 10.99630626 36.98891878 10 34 C9.34 33.67 8.68 33.34 8 33 C8.309375 31.329375 8.309375 31.329375 8.625 29.625 C8.74875 28.42875 8.8725 27.2325 9 26 C8.34 25.34 7.68 24.68 7 24 C6.4448051 20.73051894 6.10764374 17.46140802 5.7578125 14.1640625 C4.88875029 10.53550377 3.68486847 9.4726259 1 7 C0.25 3.25 0.25 3.25 0 0 Z " fill="#B96467" transform="translate(314,224)"/>
<path d="M0 0 C0.99 0.33 1.98 0.66 3 1 C1.15570679 3.76643982 -0.01307223 4.92379526 -2.625 6.8125 C-3.3365625 7.33199219 -4.048125 7.85148437 -4.78125 8.38671875 C-5.5134375 8.91910156 -6.245625 9.45148438 -7 10 C-8.37630975 11.03993554 -9.75134971 12.08155411 -11.125 13.125 C-12.41502165 14.08554657 -13.70659934 15.04400821 -15 16 C-15.57105469 16.42925781 -16.14210937 16.85851562 -16.73046875 17.30078125 C-18.3125 18.4375 -18.3125 18.4375 -21 20 C-21.99 19.67 -22.98 19.34 -24 19 C-23.5020163 15.26512223 -23.12508244 13.18762365 -21 10 C-20.34 10 -19.68 10 -19 10 C-18.814375 9.1028125 -18.814375 9.1028125 -18.625 8.1875 C-18 6 -18 6 -16 3 C-14.68 3.66 -13.36 4.32 -12 5 C-12.99 6.485 -12.99 6.485 -14 8 C-13.34 8.33 -12.68 8.66 -12 9 C-12 9.33 -12 9.66 -12 10 C-11.34 10 -10.68 10 -10 10 C-9.75121094 9.40832031 -9.50242188 8.81664062 -9.24609375 8.20703125 C-7.82094072 5.68285738 -6.37223967 4.42088005 -4.0625 2.6875 C-3.02802734 1.88892578 -3.02802734 1.88892578 -1.97265625 1.07421875 C-1.32167969 0.71972656 -0.67070312 0.36523438 0 0 Z M-22 16 C-22 16.99 -22 17.98 -22 19 C-21.34 18.01 -20.68 17.02 -20 16 C-20.66 16 -21.32 16 -22 16 Z " fill="#261D1E" transform="translate(265,348)"/>
<path d="M0 0 C0.99 0.33 1.98 0.66 3 1 C2.67 1.99 2.34 2.98 2 4 C3.32 3.67 4.64 3.34 6 3 C6 3.66 6 4.32 6 5 C6.99 5.33 7.98 5.66 9 6 C8.79503906 6.78761719 8.59007812 7.57523437 8.37890625 8.38671875 C6.42816597 16.27368303 5.38500022 23.88844373 5 32 C4.67 32 4.34 32 4 32 C3.93941406 30.73542969 3.87882813 29.47085938 3.81640625 28.16796875 C3.73199096 26.50780129 3.64734345 24.84764563 3.5625 23.1875 C3.52318359 22.35412109 3.48386719 21.52074219 3.44335938 20.66210938 C3.40146484 19.85966797 3.35957031 19.05722656 3.31640625 18.23046875 C3.27974854 17.49207764 3.24309082 16.75368652 3.20532227 15.99291992 C3.05157859 13.792505 3.05157859 13.792505 2 11 C1.01 11 0.02 11 -1 11 C-1.66 10.67 -2.32 10.34 -3 10 C-3.33 11.98 -3.66 13.96 -4 16 C-5.32 16.33 -6.64 16.66 -8 17 C-7.39644592 13.14974121 -6.23227397 10.13898841 -4.4375 6.6875 C-3.98246094 5.80449219 -3.52742187 4.92148438 -3.05859375 4.01171875 C-2.53458984 3.01591797 -2.53458984 3.01591797 -2 2 C-1.34 2 -0.68 2 0 2 C0 1.34 0 0.68 0 0 Z " fill="#812726" transform="translate(213,106)"/>
<path d="M0 0 C0.99 0 1.98 0 3 0 C4.02028865 1.31787285 5.01971384 2.65210653 6 4 C6.99 4.33 7.98 4.66 9 5 C9 5.99 9 6.98 9 8 C9.53625 8.0825 10.0725 8.165 10.625 8.25 C15.33827576 9.73840287 18.36482212 11.84306886 20.75 16.1875 C21.1625 17.115625 21.575 18.04375 22 19 C22.66 19.33 23.32 19.66 24 20 C24.33 20.99 24.66 21.98 25 23 C25.66 22.67 26.32 22.34 27 22 C27.33 24.64 27.66 27.28 28 30 C28.66 30 29.32 30 30 30 C34.39598407 39.61925666 35.84032269 47.5048458 36 58 C35.01 58.495 35.01 58.495 34 59 C33.98582031 58.45214844 33.97164063 57.90429688 33.95703125 57.33984375 C32.96950964 40.92563323 25.73997714 25.3624281 14 14 C7.8995583 8.43545803 7.8995583 8.43545803 1 4 C0.375 1.9375 0.375 1.9375 0 0 Z " fill="#C4322F" transform="translate(252,204)"/>
<path d="M0 0 C1.32 0.33 2.64 0.66 4 1 C4.33 2.32 4.66 3.64 5 5 C5.66 5 6.32 5 7 5 C7 5.66 7 6.32 7 7 C7.66 7 8.32 7 9 7 C8.49477778 11.37859255 5.82172778 13.81651224 3 17 C-0.09084737 16.65657251 -1.32444569 15.74044345 -3.8125 13.75 C-6 11 -6 11 -6 8.375 C-4.95692417 5.89769491 -3.99382666 4.75456746 -2 3 C-1.34 2.01 -0.68 1.02 0 0 Z " fill="#434D4F" transform="translate(325,327)"/>
<path d="M0 0 C2.4375 0 2.4375 0 5 1 C6.5625 3.8125 6.5625 3.8125 8 7 C8.721875 7.721875 9.44375 8.44375 10.1875 9.1875 C10.785625 9.785625 11.38375 10.38375 12 11 C12 11.99 12 12.98 12 14 C11.01 14.495 11.01 14.495 10 15 C9.34786708 17.02463255 9.34786708 17.02463255 9 19 C8.34 19 7.68 19 7 19 C7 19.66 7 20.32 7 21 C6.34 21 5.68 21 5 21 C4.67 20.01 4.34 19.02 4 18 C3.34 17.67 2.68 17.34 2 17 C2 15.68 2 14.36 2 13 C1.484375 12.505 0.96875 12.01 0.4375 11.5 C-0.036875 11.005 -0.51125 10.51 -1 10 C-0.6875 7.9375 -0.6875 7.9375 0 6 C0 5.34 0 4.68 0 4 C-0.66 3.34 -1.32 2.68 -2 2 C-1.34 1.34 -0.68 0.68 0 0 Z " fill="#882221" transform="translate(323,173)"/>
<path d="M0 0 C0.99 0.33 1.98 0.66 3 1 C3.309375 1.804375 3.61875 2.60875 3.9375 3.4375 C4.76608159 6.14157493 4.76608159 6.14157493 7.125 7.3125 C7.74375 7.539375 8.3625 7.76625 9 8 C9 8.66 9 9.32 9 10 C8.34 10 7.68 10 7 10 C7 10.66 7 11.32 7 12 C6.34 12 5.68 12 5 12 C5 12.66 5 13.32 5 14 C4.34 14 3.68 14 3 14 C2.67 14.99 2.34 15.98 2 17 C-1 17 -1 17 -2.60546875 15.46875 C-3.38857422 14.49421875 -3.38857422 14.49421875 -4.1875 13.5 C-4.71730469 12.8503125 -5.24710938 12.200625 -5.79296875 11.53125 C-6.39044922 10.77328125 -6.39044922 10.77328125 -7 10 C-5.63016497 6.83884224 -5.0109362 6.0072908 -2 4 C-0.80767387 1.94996045 -0.80767387 1.94996045 0 0 Z " fill="#585D5F" transform="translate(180,119)"/>
<path d="M0 0 C0.99 0.33 1.98 0.66 3 1 C3.309375 1.804375 3.61875 2.60875 3.9375 3.4375 C4.76608159 6.14157493 4.76608159 6.14157493 7.125 7.3125 C7.74375 7.539375 8.3625 7.76625 9 8 C9 8.66 9 9.32 9 10 C7.34614767 11.34919532 5.678298 12.68133728 4 14 C3.01 15.485 3.01 15.485 2 17 C-0.37948772 16.82374165 -1.70225849 16.30280227 -3.37890625 14.59765625 C-4.62115486 13.09350908 -5.81376056 11.54870149 -7 10 C-5.69425831 7.08719163 -4.2925792 5.19705507 -2 3 C-1.34 2.01 -0.68 1.02 0 0 Z " fill="#4D5559" transform="translate(317,119)"/>
<path d="M0 0 C5.87576174 1.37614142 9.20892895 4.43768503 13.4375 8.5 C14.10056152 9.13220459 14.76362305 9.76440918 15.44677734 10.41577148 C24.23655935 18.9615736 29.08756712 27.36968194 33 39 C33.433125 40.2375 33.86625 41.475 34.3125 42.75 C35.18629666 46.88067513 35.17157919 50.7963098 35 55 C34.67 55 34.34 55 34 55 C33.89042969 54.45472656 33.78085937 53.90945313 33.66796875 53.34765625 C32.63364468 48.42831007 31.32213749 43.76165091 29.5859375 39.04296875 C29 37 29 37 29 33 C28.34 33 27.68 33 27 33 C27 32.01 27 31.02 27 30 C26.34 30 25.68 30 25 30 C24.71125 28.948125 24.4225 27.89625 24.125 26.8125 C23.22774807 23.77181289 22.23576581 20.91287656 21 18 C20.34 18 19.68 18 19 18 C18.4225 17.2575 17.845 16.515 17.25 15.75 C14.40218663 12.26933921 11.26980601 9.44135117 6.75 8.5625 C6.1725 8.376875 5.595 8.19125 5 8 C4.29788106 6.34795544 3.63028587 4.68076231 3 3 C2.01 2.67 1.02 2.34 0 2 C0 1.34 0 0.68 0 0 Z " fill="#8F2122" transform="translate(251,207)"/>
<path d="M0 0 C0.33 0 0.66 0 1 0 C1.50965251 20.98069498 1.50965251 20.98069498 -2 28 C-2.1554731 29.49714833 -2.27519108 30.99811346 -2.375 32.5 C-3.46958238 44.18677183 -8.03908095 53.7187746 -15 63 C-16 60 -16 60 -14.78515625 57.08203125 C-14.21667969 56.00308594 -13.64820313 54.92414063 -13.0625 53.8125 C-12.49660156 52.72582031 -11.93070312 51.63914062 -11.34765625 50.51953125 C-10.90292969 49.68808594 -10.45820313 48.85664063 -10 48 C-9.34 48 -8.68 48 -8 48 C-7.88930176 47.37544922 -7.77860352 46.75089844 -7.66455078 46.10742188 C-7.15423575 43.23776272 -6.63964735 40.36888522 -6.125 37.5 C-5.95097656 36.51773438 -5.77695312 35.53546875 -5.59765625 34.5234375 C-4.81784085 30.19112973 -4.0162073 25.90919645 -2.875 21.65625 C-2.0640138 18.26748625 -1.78836366 15.46545352 -1.875 12 C-1.89304687 11.05125 -1.91109375 10.1025 -1.9296875 9.125 C-1.95289063 8.42375 -1.97609375 7.7225 -2 7 C-1.34 7 -0.68 7 0 7 C0 4.69 0 2.38 0 0 Z " fill="#701E21" transform="translate(285,262)"/>
<path d="M0 0 C0.99 0.66 1.98 1.32 3 2 C1.71937515 3.7074998 0.38232443 5.37373596 -1 7 C-1.66 7 -2.32 7 -3 7 C-3.2578125 7.58265625 -3.515625 8.1653125 -3.78125 8.765625 C-5.09834017 11.1802903 -6.55088384 12.81740177 -8.5 14.75 C-9.1084375 15.36359375 -9.716875 15.9771875 -10.34375 16.609375 C-12 18 -12 18 -14 18 C-14 18.66 -14 19.32 -14 20 C-15.96147874 21.38938077 -17.96166576 22.7260411 -20 24 C-20.33 22.02 -20.66 20.04 -21 18 C-19.35 18 -17.7 18 -16 18 C-15.67 15.03 -15.34 12.06 -15 9 C-11.27569643 8.30710631 -7.78916254 7.88855404 -4 8 C-3.896875 7.236875 -3.79375 6.47375 -3.6875 5.6875 C-2.95635961 2.82940576 -2.23048087 1.84257115 0 0 Z " fill="#161A20" transform="translate(289,344)"/>
<path d="M0 0 C1.65324878 3.30649755 1.03328773 6.57839453 0 10 C-1.40216965 11.9854083 -2.89949527 13.65046166 -4.625 15.359375 C-6.20001031 17.23864867 -6.44139944 18.64725019 -7 21 C-9.375 23.3125 -9.375 23.3125 -12 25 C-12.99 24.67 -13.98 24.34 -15 24 C-14.67 20.7 -14.34 17.4 -14 14 C-13.67 14.66 -13.34 15.32 -13 16 C-11.10110612 15.99151109 -11.10110612 15.99151109 -9 15 C-7.04218125 12.08085854 -7.04218125 12.08085854 -5.375 8.5625 C-2.15231788 2.15231788 -2.15231788 2.15231788 0 0 Z " fill="#261A1E" transform="translate(269,320)"/>
<path d="M0 0 C0.99 0.33 1.98 0.66 3 1 C3 2.98 3 4.96 3 7 C3.66 7 4.32 7 5 7 C5 7.66 5 8.32 5 9 C5.928125 8.79375 6.85625 8.5875 7.8125 8.375 C11 8 11 8 14 10 C13.67 10.66 13.34 11.32 13 12 C13.66 12.33 14.32 12.66 15 13 C13.68 15.31 12.36 17.62 11 20 C9.68 19.67 8.36 19.34 7 19 C7 16.69 7 14.38 7 12 C5.35 12.33 3.7 12.66 2 13 C0.17481425 10.66376225 -1.01010373 8.91101935 -0.9765625 5.88671875 C-0.71735287 3.91462383 -0.36455921 1.95536303 0 0 Z " fill="#E73839" transform="translate(281,211)"/>
<path d="M0 0 C0.33 1.32 0.66 2.64 1 4 C1.66 4.66 2.32 5.32 3 6 C2.01 7.485 2.01 7.485 1 9 C0.66781808 12.00259517 0.66781808 12.00259517 2.5 13.6875 C2.995 14.120625 3.49 14.55375 4 15 C3.34 15.66 2.68 16.32 2 17 C1.566875 16.2575 1.13375 15.515 0.6875 14.75 C-2.73554448 11.24734984 -6.01222236 10.37647384 -10.63671875 8.9921875 C-11.80654297 8.50105469 -11.80654297 8.50105469 -13 8 C-13.33 7.01 -13.66 6.02 -14 5 C-7.07 2.525 -7.07 2.525 0 0 Z " fill="#8A2524" transform="translate(322,172)"/>
<path d="M0 0 C0.66 0.66 1.32 1.32 2 2 C1.45730469 2.66386719 0.91460937 3.32773437 0.35546875 4.01171875 C-0.35996094 4.89472656 -1.07539063 5.77773438 -1.8125 6.6875 C-2.52019531 7.55761719 -3.22789062 8.42773438 -3.95703125 9.32421875 C-6.02688522 11.92800861 -6.02688522 11.92800861 -7.58203125 14.6640625 C-10.47122714 19.42367446 -14.76483768 22.30627102 -20 24 C-19.58682778 19.17965738 -17.61980085 17.09007389 -14 14 C-13.34 14 -12.68 14 -12 14 C-11.731875 13.4225 -11.46375 12.845 -11.1875 12.25 C-10 10 -10 10 -8.375 7.9375 C-6.7106265 5.9882168 -6.7106265 5.9882168 -7 3 C-4 2 -4 2 -1 3 C-0.67 2.01 -0.34 1.02 0 0 Z " fill="#291918" transform="translate(283,326)"/>
<path d="M0 0 C2 2 2 2 2.15234375 4.03125 C1.44671733 12.13953903 -1.52112741 18.28169111 -6 25 C-6.66 25 -7.32 25 -8 25 C-8.28875 25.639375 -8.5775 26.27875 -8.875 26.9375 C-10 29 -10 29 -12 30 C-12 27.36 -12 24.72 -12 22 C-11.01 21.67 -10.02 21.34 -9 21 C-8.34 20.01 -7.68 19.02 -7 18 C-6.34 18 -5.68 18 -5 18 C-4.67 15.36 -4.34 12.72 -4 10 C-3.34 10 -2.68 10 -2 10 C-2 9.34 -2 8.68 -2 8 C-2.66 8 -3.32 8 -4 8 C-3.34 6.68 -2.68 5.36 -2 4 C-1.34 4 -0.68 4 0 4 C0 2.68 0 1.36 0 0 Z " fill="#AE4A4A" transform="translate(292,139)"/>
<path d="M0 0 C0.66 0 1.32 0 2 0 C2 0.66 2 1.32 2 2 C2.94875 2.061875 3.8975 2.12375 4.875 2.1875 C5.90625 2.455625 6.9375 2.72375 8 3 C9.375 5.5625 9.375 5.5625 10 8 C9.34 8.66 8.68 9.32 8 10 C7.01 10 6.02 10 5 10 C4.34 11.32 3.68 12.64 3 14 C1.02 12.35 -0.96 10.7 -3 9 C-2.44271087 5.65626525 -1.64826111 2.96687001 0 0 Z " fill="#D52D2A" transform="translate(333,171)"/>
<path d="M0 0 C7.42301153 6.54971606 12.46496613 15.2424328 13.15405273 25.23364258 C13.19518266 27.49286797 13.17589478 29.74105491 13.125 32 C13.11597656 32.77472656 13.10695313 33.54945313 13.09765625 34.34765625 C13.07439388 36.23190843 13.0385364 38.11599832 13 40 C12.34 39.01 11.68 38.02 11 37 C9.67618483 35.32576317 8.34423339 33.65788785 7 32 C7.495 31.46375 7.99 30.9275 8.5 30.375 C10.37489544 27.40641555 10.23501425 25.44687573 10 22 C9.34 22.33 8.68 22.66 8 23 C8.103125 21.845 8.20625 20.69 8.3125 19.5 C8.35305011 14.94216741 6.69940535 12.29750412 4.09375 8.6640625 C3 7 3 7 3 5 C2.01 4.67 1.02 4.34 0 4 C0 2.68 0 1.36 0 0 Z " fill="#E36F73" transform="translate(282,104)"/>
<path d="M0 0 C0.33 0 0.66 0 1 0 C1.33 6.6 1.66 13.2 2 20 C3.32 19.34 4.64 18.68 6 18 C8.75 18.375 8.75 18.375 11 19 C11 19.99 11 20.98 11 22 C9.20703125 23.5703125 9.20703125 23.5703125 6.8125 25.125 C6.03519531 25.64320313 5.25789062 26.16140625 4.45703125 26.6953125 C1.93494394 28.03454487 -0.18816826 28.59046145 -3 29 C-2.68289062 27.73285156 -2.36578125 26.46570313 -2.0390625 25.16015625 C-0.87487333 19.92130498 -0.56344058 14.78842741 -0.375 9.4375 C-0.33632812 8.52419922 -0.29765625 7.61089844 -0.2578125 6.66992188 C-0.16469748 4.44680076 -0.07887834 2.22366387 0 0 Z " fill="#464A4E" transform="translate(205,353)"/>
<path d="M0 0 C0.99 0 1.98 0 3 0 C3.12375 1.670625 3.12375 1.670625 3.25 3.375 C3.4975 4.57125 3.745 5.7675 4 7 C5.31647119 7.69937532 6.65022151 8.36729133 8 9 C8.75 12.125 8.75 12.125 9 15 C8.34 14.67 7.68 14.34 7 14 C7 13.34 7 12.68 7 12 C5.02 12.66 3.04 13.32 1 14 C-0.74627478 11.38058783 -1.38722388 9.96175123 -2 7 C-2.99 7.66 -3.98 8.32 -5 9 C-5.66 8.67 -6.32 8.34 -7 8 C-6.25 6.0625 -6.25 6.0625 -5 4 C-3.67405895 3.63837971 -2.34061543 3.30271961 -1 3 C-0.67 2.01 -0.34 1.02 0 0 Z " fill="#E23835" transform="translate(311,224)"/>
<path d="M0 0 C0.33 0.66 0.66 1.32 1 2 C0.38125 2.433125 -0.2375 2.86625 -0.875 3.3125 C-3.2197245 4.99740483 -3.2197245 4.99740483 -5 8 C-5 7.34 -5 6.68 -5 6 C-8.3270336 8.2180224 -8.88292386 9.27641285 -10 13 C-9.67 13.66 -9.34 14.32 -9 15 C-16.50769231 14.38461538 -16.50769231 14.38461538 -19 12.4375 C-19.33 11.963125 -19.66 11.48875 -20 11 C-18.45811279 7.91622558 -15.91388041 7.43972317 -12.8125 6.0625 C-8.48982431 4.13088149 -4.22101745 2.14573725 0 0 Z " fill="#2F3639" transform="translate(211,388)"/>
<path d="M0 0 C1.65 0.33 3.3 0.66 5 1 C4.85795259 2.58367747 4.71119847 4.16693318 4.5625 5.75 C4.48128906 6.63171875 4.40007812 7.5134375 4.31640625 8.421875 C4.03761535 10.69350452 3.61209423 12.79851823 3 15 C1.10546875 14.77734375 1.10546875 14.77734375 -1 14 C-2.01171875 12.00390625 -2.01171875 12.00390625 -2.6875 9.5625 C-3.6372485 6.20141834 -3.6372485 6.20141834 -5 3 C-3.68 3 -2.36 3 -1 3 C-0.67 2.01 -0.34 1.02 0 0 Z " fill="#413A3F" transform="translate(301,371)"/>
<path d="M0 0 C0.66 0 1.32 0 2 0 C2.19335938 0.66386719 2.38671875 1.32773438 2.5859375 2.01171875 C4.52751352 8.59789309 4.52751352 8.59789309 7 15 C6.01 14.67 5.02 14.34 4 14 C3.34 14.66 2.68 15.32 2 16 C2 13.36 2 10.72 2 8 C1.67 8.66 1.34 9.32 1 10 C0.34 10 -0.32 10 -1 10 C-1 10.99 -1 11.98 -1 13 C-1.66 13 -2.32 13 -3 13 C-3 13.66 -3 14.32 -3 15 C-3.99 15.33 -4.98 15.66 -6 16 C-4.125 11.125 -4.125 11.125 -3 10 C-2.63272554 8.50794753 -2.3050154 7.00601352 -2 5.5 C-1.11111111 1.11111111 -1.11111111 1.11111111 0 0 Z " fill="#A5585A" transform="translate(168,154)"/>
<path d="M0 0 C0.99 0 1.98 0 3 0 C3.26554687 0.68707031 3.53109375 1.37414062 3.8046875 2.08203125 C4.15789062 2.98308594 4.51109375 3.88414062 4.875 4.8125 C5.39707031 6.15248047 5.39707031 6.15248047 5.9296875 7.51953125 C6.98832155 10.17711591 6.98832155 10.17711591 9 13 C5.86650268 14.04449911 5.01031744 13.93423645 2 13 C2 11.68 2 10.36 2 9 C0.35 9.33 -1.3 9.66 -3 10 C-2.01 6.7 -1.02 3.4 0 0 Z " fill="#583A40" transform="translate(301,352)"/>
<path d="M0 0 C0.66 0.33 1.32 0.66 2 1 C2 3.31 2 5.62 2 8 C1.38125 8.144375 0.7625 8.28875 0.125 8.4375 C-2.03258322 8.93152225 -2.03258322 8.93152225 -4 10 C-4 10.66 -4 11.32 -4 12 C-6.64 12 -9.28 12 -12 12 C-11.01 11.67 -10.02 11.34 -9 11 C-8.67 8.69 -8.34 6.38 -8 4 C-7.236875 3.896875 -6.47375 3.79375 -5.6875 3.6875 C-2.82940576 2.95635961 -1.84257115 2.23048087 0 0 Z " fill="#121D21" transform="translate(210,390)"/>
<path d="M0 0 C1.8359375 0.1171875 1.8359375 0.1171875 4 1 C5.4140625 3.6953125 5.4140625 3.6953125 6.625 7.125 C7.04394531 8.30835938 7.46289062 9.49171875 7.89453125 10.7109375 C8.25933594 11.79632813 8.62414062 12.88171875 9 14 C9.433125 15.2375 9.86625 16.475 10.3125 17.75 C11.18629666 21.88067513 11.17157919 25.7963098 11 30 C10.67 30 10.34 30 10 30 C9.89042969 29.45472656 9.78085937 28.90945313 9.66796875 28.34765625 C8.63364468 23.42831007 7.32213749 18.76165091 5.5859375 14.04296875 C5 12 5 12 5 8 C4.34 8 3.68 8 3 8 C3 7.01 3 6.02 3 5 C2.34 5 1.68 5 1 5 C0.67 3.35 0.34 1.7 0 0 Z " fill="#812020" transform="translate(275,232)"/>
<path d="M0 0 C0.12375 0.53625 0.2475 1.0725 0.375 1.625 C1.12206016 4.4638286 2.05303364 7.22223202 3 10 C2.01 10.66 1.02 11.32 0 12 C-0.99 11.34 -1.98 10.68 -3 10 C-3.33 11.98 -3.66 13.96 -4 16 C-5.32 16.33 -6.64 16.66 -8 17 C-7.39644592 13.14974121 -6.23227397 10.13898841 -4.4375 6.6875 C-3.98246094 5.80449219 -3.52742187 4.92148438 -3.05859375 4.01171875 C-2.53458984 3.01591797 -2.53458984 3.01591797 -2 2 C-1.34 2 -0.68 2 0 2 C0 1.34 0 0.68 0 0 Z " fill="#854B4B" transform="translate(213,106)"/>
<path d="M0 0 C0.5775 0.226875 1.155 0.45375 1.75 0.6875 C1.0384375 1.5228125 1.0384375 1.5228125 0.3125 2.375 C-1.37395996 4.87096074 -1.83953107 6.7321237 -2.25 9.6875 C-2.91 9.3575 -3.57 9.0275 -4.25 8.6875 C-6.34821215 9.08688767 -6.34821215 9.08688767 -8.25 9.6875 C-8.25 10.3475 -8.25 11.0075 -8.25 11.6875 C-8.91 11.6875 -9.57 11.6875 -10.25 11.6875 C-10.58 13.0075 -10.91 14.3275 -11.25 15.6875 C-11.58 15.0275 -11.91 14.3675 -12.25 13.6875 C-11.17578125 11.19140625 -11.17578125 11.19140625 -9.5625 8.25 C-9.04300781 7.28191406 -8.52351562 6.31382812 -7.98828125 5.31640625 C-5.87318378 2.1176184 -4.06232544 -0.56421187 0 0 Z " fill="#854C4D" transform="translate(249.25,205.3125)"/>
<path d="M0 0 C0.66 0 1.32 0 2 0 C1.35812082 5.13503344 0.31727753 9.9943454 -1 15 C-1.99 15 -2.98 15 -4 15 C-4.5345256 13.75579353 -5.05208611 12.50429064 -5.5625 11.25 C-5.85253906 10.55390625 -6.14257812 9.8578125 -6.44140625 9.140625 C-7.07831803 6.69987216 -6.80248831 5.3596345 -6 3 C-5.67 4.32 -5.34 5.64 -5 7 C-4.34 7 -3.68 7 -3 7 C-3 6.34 -3 5.68 -3 5 C-2.34 5 -1.68 5 -1 5 C-0.67 3.35 -0.34 1.7 0 0 Z " fill="#815257" transform="translate(333,187)"/>
<path d="M0 0 C0.66 0 1.32 0 2 0 C1.835 0.598125 1.67 1.19625 1.5 1.8125 C0.8885876 4.11344336 0.8885876 4.11344336 1 7 C-0.98712316 8.54002045 -2.83111533 9.76391954 -5 11 C-5.6496875 11.37769531 -6.299375 11.75539062 -6.96875 12.14453125 C-11.13741892 14.41324915 -14.13643339 15.48635666 -19 15 C-18.44183594 14.72542969 -17.88367188 14.45085937 -17.30859375 14.16796875 C-9.80587908 10.37217909 -4.57310434 7.14547553 0 0 Z " fill="#88201F" transform="translate(277,151)"/>
<path d="M0 0 C-5.89876877 3.05832197 -10.726505 3.43224536 -17.3125 3.3125 C-18.21806641 3.31572266 -19.12363281 3.31894531 -20.05664062 3.32226562 C-26.7324953 3.2675047 -26.7324953 3.2675047 -29 1 C-23.11387009 -0.1211676 -17.38397612 -0.04325262 -11.40234375 0.0625 C-7.99987949 0.08478544 -7.99987949 0.08478544 -4.69140625 -0.5625 C-2 -1 -2 -1 0 0 Z " fill="#511C1A" transform="translate(266,166)"/>
<path d="M0 0 C0.66 0.33 1.32 0.66 2 1 C2.125 5.75 2.125 5.75 1 8 C1.27942455 9.67654729 1.60828247 11.34608154 2 13 C0.68 13.33 -0.64 13.66 -2 14 C-2.33 16.31 -2.66 18.62 -3 21 C-2.34 21.33 -1.68 21.66 -1 22 C-1.66 23.32 -2.32 24.64 -3 26 C-5.72766526 17.81700423 -4.39325159 9.41442796 -0.875 1.73046875 C-0.58625 1.15941406 -0.2975 0.58835937 0 0 Z " fill="#AE2B2B" transform="translate(222,115)"/>
<path d="M0 0 C0.33 0 0.66 0 1 0 C1.29332526 12.07522337 0.68828704 22.70549032 -4 34 C-5.29596505 30.36958135 -4.65244246 28.07548571 -3.5625 24.4375 C-1.95705955 18.5046678 -1.67509368 13.11305217 -2 7 C-1.34 7 -0.68 7 0 7 C0 4.69 0 2.38 0 0 Z " fill="#551E1B" transform="translate(285,262)"/>
<path d="M0 0 C1.01513672 0.11214844 1.01513672 0.11214844 2.05078125 0.2265625 C6.51811675 0.79686065 9.96754595 2.03455876 13.875 4.25 C13.215 4.91 12.555 5.57 11.875 6.25 C11.33133789 5.93756348 10.78767578 5.62512695 10.22753906 5.30322266 C7.51216046 4.08755814 5.18748061 3.74401369 2.234375 3.3984375 C1.16445313 3.26953125 0.09453125 3.140625 -1.0078125 3.0078125 C-2.11898437 2.88148437 -3.23015625 2.75515625 -4.375 2.625 C-5.50164062 2.4909375 -6.62828125 2.356875 -7.7890625 2.21875 C-10.56699438 1.88916486 -13.34555304 1.56650936 -16.125 1.25 C-16.125 0.92 -16.125 0.59 -16.125 0.25 C-10.51097729 -0.62915344 -5.62012834 -0.75801346 0 0 Z " fill="#E3817F" transform="translate(255.125,89.75)"/>
<path d="M0 0 C-2.43243243 5.71621622 -2.43243243 5.71621622 -5 7 C-7 7 -7 7 -10 5 C-10.99 5.495 -10.99 5.495 -12 6 C-12.66 5.34 -13.32 4.68 -14 4 C-5.92255125 -1.92482916 -5.92255125 -1.92482916 0 0 Z " fill="#454E50" transform="translate(219,199)"/>
<path d="M0 0 C0.99 0.763125 1.98 1.52625 3 2.3125 C6.80971735 5.05487322 10.55974265 6.51991422 15 8 C14.67 8.99 14.34 9.98 14 11 C6.375 10.125 6.375 10.125 3 9 C3.33 7.68 3.66 6.36 4 5 C2.68 4.67 1.36 4.34 0 4 C0 2.68 0 1.36 0 0 Z " fill="#9A373C" transform="translate(175,169)"/>
<path d="M0 0 C0.66 0.33 1.32 0.66 2 1 C1.68991116 2.60463449 1.37683713 4.20869231 1.0625 5.8125 C0.88847656 6.70582031 0.71445313 7.59914062 0.53515625 8.51953125 C0 11 0 11 -1 14 C-1.99 13.67 -2.98 13.34 -4 13 C-5.14507772 7.80310881 -5.14507772 7.80310881 -5 5 C-2.5625 2 -2.5625 2 0 0 Z " fill="#423337" transform="translate(171,188)"/>
<path d="M0 0 C0.99 0.66 1.98 1.32 3 2 C1.71937515 3.7074998 0.38232443 5.37373596 -1 7 C-1.66 7 -2.32 7 -3 7 C-3.20625 7.556875 -3.4125 8.11375 -3.625 8.6875 C-5.55000774 11.92501302 -8.03850902 13.68231141 -11 16 C-11.33 14.35 -11.66 12.7 -12 11 C-11.01 10.67 -10.02 10.34 -9 10 C-9 9.34 -9 8.68 -9 8 C-7.35 8 -5.7 8 -4 8 C-3.896875 7.236875 -3.79375 6.47375 -3.6875 5.6875 C-2.95635961 2.82940576 -2.23048087 1.84257115 0 0 Z " fill="#44454F" transform="translate(289,344)"/>
<path d="M0 0 C0.66 0.33 1.32 0.66 2 1 C0.7580393 4.43927579 -0.55740284 7.25207819 -3 10 C-3.66 10 -4.32 10 -5 10 C-5.268125 10.639375 -5.53625 11.27875 -5.8125 11.9375 C-7 14 -7 14 -10 15 C-10.0825 15.78375 -10.165 16.5675 -10.25 17.375 C-11 20 -11 20 -13.0625 21.3125 C-14.0215625 21.6528125 -14.0215625 21.6528125 -15 22 C-14.58682778 17.17965738 -12.61980085 15.09007389 -9 12 C-8.34 12 -7.68 12 -7 12 C-6.731875 11.4225 -6.46375 10.845 -6.1875 10.25 C-5 8 -5 8 -3.375 5.9375 C-1.7106265 3.9882168 -1.7106265 3.9882168 -2 1 C-1.34 0.67 -0.68 0.34 0 0 Z " fill="#441F1F" transform="translate(278,328)"/>
<path d="M0 0 C4.42078281 3.90069071 6.61098477 7.72089409 8.875 13.125 C9.1946875 13.84042969 9.514375 14.55585938 9.84375 15.29296875 C12.12981505 20.61055485 12.12981505 20.61055485 11 24 C10.54625 22.865625 10.0925 21.73125 9.625 20.5625 C8.42904194 16.95278308 8.42904194 16.95278308 6 16 C5.690625 14.865625 5.38125 13.73125 5.0625 12.5625 C4.34378643 8.76783002 4.34378643 8.76783002 1 7 C0.3125 3.375 0.3125 3.375 0 0 Z " fill="#D76C74" transform="translate(314,224)"/>
<path d="M0 0 C0.70125 0.5775 1.4025 1.155 2.125 1.75 C7.98977981 6.5390416 7.98977981 6.5390416 15 9 C14.67 9.66 14.34 10.32 14 11 C13.01 10.67 12.02 10.34 11 10 C10.67 10.66 10.34 11.32 10 12 C8.0625 11.1875 8.0625 11.1875 6 10 C5.67 9.01 5.34 8.02 5 7 C2.36 7 -0.28 7 -3 7 C-2.01 4.69 -1.02 2.38 0 0 Z " fill="#65201E" transform="translate(162,174)"/>
<path d="M0 0 C0.33 0.99 0.66 1.98 1 3 C1.66 3.33 2.32 3.66 3 4 C3 5.65 3 7.3 3 9 C2.01 8.01 1.02 7.02 0 6 C-1.32 7.32 -2.64 8.64 -4 10 C-4.33 9.34 -4.66 8.68 -5 8 C-7.52733235 7.34444881 -7.52733235 7.34444881 -10 7 C-6.76478258 4.51137122 -3.40739705 2.24578442 0 0 Z " fill="#6D4142" transform="translate(163,169)"/>
<path d="M0 0 C0.99 0 1.98 0 3 0 C4.19287411 3.87684087 5 6.91621923 5 11 C4.01 10.67 3.02 10.34 2 10 C2 9.01 2 8.02 2 7 C1.34 7 0.68 7 0 7 C-0.33 8.65 -0.66 10.3 -1 12 C-1.66 12 -2.32 12 -3 12 C-2.69230293 10.18667846 -2.37870936 8.37435655 -2.0625 6.5625 C-1.80146484 5.04849609 -1.80146484 5.04849609 -1.53515625 3.50390625 C-1 1 -1 1 0 0 Z " fill="#C85E5D" transform="translate(329,154)"/>
<path d="M0 0 C-0.66 1.32 -1.32 2.64 -2 4 C-2.66 4 -3.32 4 -4 4 C-4 4.99 -4 5.98 -4 7 C-4.66 7 -5.32 7 -6 7 C-6.33 7.66 -6.66 8.32 -7 9 C-7.12375 8.360625 -7.2475 7.72125 -7.375 7.0625 C-7.58125 6.381875 -7.7875 5.70125 -8 5 C-8.66 4.67 -9.32 4.34 -10 4 C-10.33 4.66 -10.66 5.32 -11 6 C-11 5.34 -11 4.68 -11 4 C-11.66 3.67 -12.32 3.34 -13 3 C-11.40084119 2.30093058 -9.79544955 1.61610532 -8.1875 0.9375 C-7.29417969 0.55464844 -6.40085938 0.17179688 -5.48046875 -0.22265625 C-3 -1 -3 -1 0 0 Z " fill="#656B6F" transform="translate(232,192)"/>
<path d="M0 0 C0.33 0 0.66 0 1 0 C1.375 2.0625 1.375 2.0625 1 5 C-0.41001586 6.89695827 -1.93876039 8.56379019 -3.58984375 10.25390625 C-5.13576549 11.91299924 -5.13576549 11.91299924 -5.5 14.07421875 C-6.3527826 17.35876423 -9.226766 18.3478606 -12 20 C-12.33 19.01 -12.66 18.02 -13 17 C-12.01 17 -11.02 17 -10 17 C-9.75378906 16.30519531 -9.50757813 15.61039062 -9.25390625 14.89453125 C-7.80373314 11.54693538 -5.97320723 8.71335158 -3.9375 5.6875 C-3.22464844 4.61886719 -2.51179688 3.55023438 -1.77734375 2.44921875 C-1.19082031 1.64097656 -0.60429687 0.83273437 0 0 Z " fill="#461C22" transform="translate(268,325)"/>
<path d="M0 0 C1.5625 1.25 1.5625 1.25 3 3 C3.0625 4.9375 3.0625 4.9375 2 7 C-1.0625 9.25 -1.0625 9.25 -4 11 C-4.99 9.68 -5.98 8.36 -7 7 C-6.34 6.67 -5.68 6.34 -5 6 C-4.67 5.01 -4.34 4.02 -4 3 C-1.9375 1.3125 -1.9375 1.3125 0 0 Z " fill="#283435" transform="translate(182,123)"/>
<path d="M0 0 C-0.99 0.495 -0.99 0.495 -2 1 C-2 1.66 -2 2.32 -2 3 C-3.45264038 3.8638129 -4.9123163 4.71580454 -6.375 5.5625 C-7.59316406 6.27599609 -7.59316406 6.27599609 -8.8359375 7.00390625 C-9.55007813 7.33261719 -10.26421875 7.66132813 -11 8 C-11.66 7.67 -12.32 7.34 -13 7 C-12.34 5.68 -11.68 4.36 -11 3 C-10.34 3 -9.68 3 -9 3 C-9 2.01 -9 1.02 -9 0 C-5.93109813 -1.53445094 -3.29905734 -0.54984289 0 0 Z " fill="#7A4D4D" transform="translate(280,169)"/>
<path d="M0 0 C0.66 0.33 1.32 0.66 2 1 C2 6.61 2 12.22 2 18 C1.34 17.01 0.68 16.02 0 15 C-1.32381517 13.32576317 -2.65576661 11.65788785 -4 10 C-3.525625 9.46375 -3.05125 8.9275 -2.5625 8.375 C-0.71813924 5.57157164 -0.37543153 3.30379742 0 0 Z " fill="#CD5E5D" transform="translate(293,126)"/>
<path d="M0 0 C3.24290174 4.8643526 5.55811184 10.04680699 5 16 C4.566875 15.54625 4.13375 15.0925 3.6875 14.625 C1.89201658 12.79975666 1.89201658 12.79975666 -1 11 C-2.25885413 6.64242801 -2.02043112 4.04086223 0 0 Z " fill="#4B5257" transform="translate(229,296)"/>
<path d="M0 0 C2.875 -0.125 2.875 -0.125 6 0 C6.66 0.66 7.32 1.32 8 2 C6.68 4.31 5.36 6.62 4 9 C2.68 8.67 1.36 8.34 0 8 C0 5.36 0 2.72 0 0 Z " fill="#E84B45" transform="translate(288,222)"/>
<path d="M0 0 C0.99 0 1.98 0 3 0 C4.02028865 1.31787285 5.01971384 2.65210653 6 4 C6.99 4.33 7.98 4.66 9 5 C9 5.99 9 6.98 9 8 C9.53625 8.0825 10.0725 8.165 10.625 8.25 C13.8352431 9.26376098 16.26292392 11.07160549 19 13 C18.67 13.66 18.34 14.32 18 15 C13.05576175 12.84481922 9.14645029 9.90377115 4.953125 6.5234375 C3.0753928 4.95541631 3.0753928 4.95541631 1 4 C0.375 1.9375 0.375 1.9375 0 0 Z " fill="#CA322E" transform="translate(252,204)"/>
<path d="M0 0 C1.65 0.33 3.3 0.66 5 1 C5.33 2.32 5.66 3.64 6 5 C4.02 5.99 4.02 5.99 2 7 C1.67 6.67 1.34 6.34 1 6 C-0.51469448 5.76807135 -2.03754562 5.58784762 -3.5625 5.4375 C-4.38878906 5.35371094 -5.21507812 5.26992187 -6.06640625 5.18359375 C-6.70449219 5.12300781 -7.34257812 5.06242188 -8 5 C-7.67 4.34 -7.34 3.68 -7 3 C-5 2.66666667 -3 2.33333333 -1 2 C-0.67 1.34 -0.34 0.68 0 0 Z " fill="#FA4240" transform="translate(288,205)"/>
<path d="M0 0 C0.33 2.97 0.66 5.94 1 9 C-3.95 7.02 -3.95 7.02 -9 5 C-9 4.01 -9 3.02 -9 2 C-3.375 0 -3.375 0 0 0 Z " fill="#5F585B" transform="translate(295,365)"/>
<path d="M0 0 C0.33 0.66 0.66 1.32 1 2 C-0.19427286 4.73650671 -1.44471772 7.35238083 -2.8125 10 C-3.18181641 10.73734375 -3.55113281 11.4746875 -3.93164062 12.234375 C-6.71898191 17.71898191 -6.71898191 17.71898191 -9 20 C-9.33 18.02 -9.66 16.04 -10 14 C-9.01 14 -8.02 14 -7 14 C-6.67 11.69 -6.34 9.38 -6 7 C-5.34 7 -4.68 7 -4 7 C-4 6.34 -4 5.68 -4 5 C-3.34 5 -2.68 5 -2 5 C-1.855625 4.360625 -1.71125 3.72125 -1.5625 3.0625 C-1 1 -1 1 0 0 Z " fill="#816366" transform="translate(320,299)"/>
<path d="M0 0 C2.78386958 3.1881027 3.56824764 5.71489442 4.1875 9.875 C4.34605469 10.88304687 4.50460937 11.89109375 4.66796875 12.9296875 C4.99784045 15.98003055 5.05947895 18.93454645 5 22 C4.34 22.33 3.68 22.66 3 23 C2.96261719 22.41734375 2.92523438 21.8346875 2.88671875 21.234375 C2.3915056 15.05877573 1.18077241 9.3390199 -0.4765625 3.37109375 C-0.64929688 2.58863281 -0.82203125 1.80617187 -1 1 C-0.67 0.67 -0.34 0.34 0 0 Z " fill="#AE2B2C" transform="translate(283,240)"/>
<path d="M0 0 C2.31 0 4.62 0 7 0 C8.76462683 3.08809695 9 4.23312136 9 8 C7.35 8.66 5.7 9.32 4 10 C4 9.34 4 8.68 4 8 C3.34 8 2.68 8 2 8 C1.34 5.36 0.68 2.72 0 0 Z M4 3 C4 4.32 4 5.64 4 7 C4.66 7.33 5.32 7.66 6 8 C6.33 6.68 6.66 5.36 7 4 C6.01 3.67 5.02 3.34 4 3 Z " fill="#E56A68" transform="translate(282,210)"/>
<path d="M0 0 C0 0.66 0 1.32 0 2 C-0.928125 2.309375 -0.928125 2.309375 -1.875 2.625 C-4.87022113 4.56308426 -5.15511762 6.6204705 -6 10 C-6 10.66 -6 11.32 -6 12 C-6.94875 11.814375 -7.8975 11.62875 -8.875 11.4375 C-11.89868793 10.71313368 -11.89868793 10.71313368 -14 12 C-12.48238697 8.17147621 -10.20656585 6.26678134 -7 3.75 C-6.113125 3.04359375 -5.22625 2.3371875 -4.3125 1.609375 C-2 0 -2 0 0 0 Z " fill="#CF746B" transform="translate(259,195)"/>
<path d="M0 0 C4.51451314 1.3489311 8.32277281 3.16618294 12.375 5.5625 C13.43460937 6.18253906 14.49421875 6.80257812 15.5859375 7.44140625 C16.38257813 7.95574219 17.17921875 8.47007812 18 9 C18 9.33 18 9.66 18 10 C15.69 9.67 13.38 9.34 11 9 C11 8.34 11 7.68 11 7 C10.01 7 9.02 7 8 7 C8 6.34 8 5.68 8 5 C5.03 4.505 5.03 4.505 2 4 C2 3.34 2 2.68 2 2 C1.34 2 0.68 2 0 2 C0 1.34 0 0.68 0 0 Z " fill="#E58389" transform="translate(276,194)"/>
<path d="M0 0 C-4.75 3 -4.75 3 -7 3 C-7 3.66 -7 4.32 -7 5 C-7.99 5 -8.98 5 -10 5 C-10.33 5.99 -10.66 6.98 -11 8 C-13.31 8.33 -15.62 8.66 -18 9 C-13.81776408 4.12072476 -6.62564285 -2.20854762 0 0 Z " fill="#C97170" transform="translate(237,92)"/>
<path d="M0 0 C1 2 1 2 0.4375 3.875 C-0.11989698 6.58235674 0.59668102 7.68865109 2 10 C1.34 10.66 0.68 11.32 0 12 C-2.625 11.625 -2.625 11.625 -5 11 C-5.33 11.66 -5.66 12.32 -6 13 C-6.66 12.67 -7.32 12.34 -8 12 C-6.625 9.5 -6.625 9.5 -5 7 C-4.34 7 -3.68 7 -3 7 C-2.814375 6.1028125 -2.814375 6.1028125 -2.625 5.1875 C-2 3 -2 3 0 0 Z " fill="#645354" transform="translate(249,351)"/>
<path d="M0 0 C0.33 0 0.66 0 1 0 C2.80619523 4.46236469 3.11658501 7.31034294 2 12 C0.68 12.33 -0.64 12.66 -2 13 C-3.18771723 9.57056481 -2.80226223 7.62215325 -1.5625 4.25 C-1.27503906 3.45078125 -0.98757812 2.6515625 -0.69140625 1.828125 C-0.46324219 1.22484375 -0.23507813 0.6215625 0 0 Z " fill="#554848" transform="translate(253,339)"/>
<path d="M0 0 C4.875 4.625 4.875 4.625 6 8 C5.01 8 4.02 8 3 8 C2.67 9.65 2.34 11.3 2 13 C0.68 12.67 -0.64 12.34 -2 12 C-1.67 11.13375 -1.34 10.2675 -1 9.375 C-0.01268659 6.04281725 0.16420974 3.44840462 0 0 Z " fill="#E26867" transform="translate(308,216)"/>
<path d="M0 0 C1.62031425 4.05078562 0.58806476 7.06436124 -1 11 C-2.87140598 12.98557664 -4.7649913 14.39662419 -7 16 C-6.67 14.02 -6.34 12.04 -6 10 C-5.34 10 -4.68 10 -4 10 C-3.79503906 9.36191406 -3.59007812 8.72382813 -3.37890625 8.06640625 C-3.10949219 7.24011719 -2.84007812 6.41382813 -2.5625 5.5625 C-2.16224609 4.32693359 -2.16224609 4.32693359 -1.75390625 3.06640625 C-1 1 -1 1 0 0 Z " fill="#631C1C" transform="translate(303,288)"/>
<path d="M0 0 C0.99 0 1.98 0 3 0 C3.25 2.8125 3.25 2.8125 3 6 C1 7.875 1 7.875 -1 9 C-1.33 8.34 -1.66 7.68 -2 7 C-2.99 7.66 -3.98 8.32 -5 9 C-5.66 8.67 -6.32 8.34 -7 8 C-6.25 6.0625 -6.25 6.0625 -5 4 C-3.67405895 3.63837971 -2.34061543 3.30271961 -1 3 C-0.67 2.01 -0.34 1.02 0 0 Z " fill="#EB4137" transform="translate(311,224)"/>
<path d="M0 0 C1.32 0.66 2.64 1.32 4 2 C4 2.66 4 3.32 4 4 C2.34614767 5.34919532 0.678298 6.68133728 -1 8 C-1.99 9.485 -1.99 9.485 -3 11 C-4.9375 10.6875 -4.9375 10.6875 -7 10 C-7.33 9.01 -7.66 8.02 -8 7 C-5.525 7.495 -5.525 7.495 -3 8 C-1.92474806 5.34771188 -0.90543849 2.71631546 0 0 Z " fill="#6E7579" transform="translate(322,125)"/>
<path d="M0 0 C2.64 0.66 5.28 1.32 8 2 C8 2.99 8 3.98 8 5 C5.36 5.66 2.72 6.32 0 7 C-1 4 -1 4 0 0 Z " fill="#6A4447" transform="translate(310,365)"/>
<path d="M0 0 C2.23915424 0.73602403 2.23915424 0.73602403 5.0625 -0.5 C4.9375 1.3125 4.9375 1.3125 4.0625 3.5 C1.1875 5.3125 1.1875 5.3125 -1.9375 6.5 C-2.9275 6.17 -3.9175 5.84 -4.9375 5.5 C-4.5625 3.0625 -4.5625 3.0625 -3.9375 0.5 C-1.9375 -0.5 -1.9375 -0.5 0 0 Z " fill="#1E2429" transform="translate(260.9375,368.5)"/>
<path d="M0 0 C0.66 0 1.32 0 2 0 C2 0.99 2 1.98 2 3 C2.66 3 3.32 3 4 3 C3.67 3.99 3.34 4.98 3 6 C2.65772583 7.33106622 2.32248257 8.66400079 2 10 C0.68 10.33 -0.64 10.66 -2 11 C-2.99 9.68 -3.98 8.36 -5 7 C-3.35 6.67 -1.7 6.34 0 6 C0 4.02 0 2.04 0 0 Z " fill="#1A2224" transform="translate(325,328)"/>
<path d="M0 0 C0.99 0.33 1.98 0.66 3 1 C2.01 3.31 1.02 5.62 0 8 C-0.99 8 -1.98 8 -3 8 C-3 7.34 -3 6.68 -3 6 C-3.66 6 -4.32 6 -5 6 C-3.63016497 2.83884224 -3.0109362 2.0072908 0 0 Z " fill="#293033" transform="translate(229,376)"/>
<path d="M0 0 C0.66 0 1.32 0 2 0 C1.52583422 4.97874064 0.0900669 8.06718758 -3 12 C-3.66 12 -4.32 12 -5 12 C-5.36898396 6.46524064 -5.36898396 6.46524064 -3.5625 4.1875 C-3.046875 3.795625 -2.53125 3.40375 -2 3 C-0.84188612 1.94729537 -0.84188612 1.94729537 0 0 Z " fill="#514448" transform="translate(309,316)"/>
<path d="M0 0 C2.38825352 3.64429796 1.94295451 6.0693436 1.125 10.25 C0.92132813 11.32765625 0.71765625 12.4053125 0.5078125 13.515625 C0.34023438 14.33546875 0.17265625 15.1553125 0 16 C-0.66 16 -1.32 16 -2 16 C-2.33 17.65 -2.66 19.3 -3 21 C-4.2551627 17.43533794 -3.71463529 15.19380548 -2.625 11.625 C-1.4907833 7.75623343 -0.54122444 4.00506088 0 0 Z " fill="#A12423" transform="translate(308,259)"/>
<path d="M0 0 C0.99 0.495 0.99 0.495 2 1 C2.73075648 3.3140622 3.40138258 5.64828869 4 8 C4.66 8 5.32 8 6 8 C6 10.31 6 12.62 6 15 C5.38125 14.21625 4.7625 13.4325 4.125 12.625 C2.10141339 10.03162353 2.10141339 10.03162353 0 8 C-0.26991906 5.31160615 -0.08737357 2.70858064 0 0 Z " fill="#C64C4E" transform="translate(321,240)"/>
<path d="M0 0 C3.3 0 6.6 0 10 0 C10.33 0.66 10.66 1.32 11 2 C7.12315913 3.19287411 4.08378077 4 0 4 C0 2.68 0 1.36 0 0 Z " fill="#E04643" transform="translate(237,91)"/>
<path d="M0 0 C2.1875 0.3125 2.1875 0.3125 4 1 C3.67 2.98 3.34 4.96 3 7 C2.34 7 1.68 7 1 7 C1 7.66 1 8.32 1 9 C0.34 9 -0.32 9 -1 9 C-1.66 7.02 -2.32 5.04 -3 3 C-1.75 1.4375 -1.75 1.4375 0 0 Z " fill="#731E1F" transform="translate(329,185)"/>
<path d="M0 0 C3.2515373 2.16769154 3.72213455 3.23949815 4.66015625 6.9140625 C5.26101718 10.60210544 5.15197125 14.27670445 5 18 C4.67 18 4.34 18 4 18 C3.87882812 17.40832031 3.75765625 16.81664062 3.6328125 16.20703125 C2.89903963 12.74700996 2.19141752 9.4785438 0.875 6.1875 C0 4 0 4 0 0 Z " fill="#731D1C" transform="translate(281,244)"/>
<path d="M0 0 C2.3125 0.125 2.3125 0.125 5 1 C6.75 3.9375 6.75 3.9375 8 7 C8.33 7.66 8.66 8.32 9 9 C7 8 5 7 3 6 C3 5.34 3 4.68 3 4 C1.35 3.67 -0.3 3.34 -2 3 C-1.34 2.01 -0.68 1.02 0 0 Z " fill="#A42323" transform="translate(323,173)"/>
<path d="M0 0 C1.41377341 2.63904371 2.37240135 5.07120629 3 8 C3.66 8 4.32 8 5 8 C5 9.65 5 11.3 5 13 C5.66 13 6.32 13 7 13 C7 13.99 7 14.98 7 16 C6.01 16 5.02 16 4 16 C-0.59225513 5.62642369 -0.59225513 5.62642369 0 0 Z " fill="#8C2629" transform="translate(218,138)"/>
<path d="M0 0 C1.32 0.33 2.64 0.66 4 1 C3.01 1.33 2.02 1.66 1 2 C1 2.66 1 3.32 1 4 C-0.96147874 5.38938077 -2.96166576 6.7260411 -5 8 C-5.33 6.02 -5.66 4.04 -6 2 C-4.35 2 -2.7 2 -1 2 C-0.67 1.34 -0.34 0.68 0 0 Z " fill="#40444E" transform="translate(274,360)"/>
<path d="M0 0 C2 3 2 3 3 6 C2.0625 8.6875 2.0625 8.6875 1 11 C0.34 10.67 -0.32 10.34 -1 10 C-1.5625 7.6875 -1.5625 7.6875 -2 5 C-2.32483418 3.66457061 -2.6550855 2.33038449 -3 1 C-2.01 0.67 -1.02 0.34 0 0 Z " fill="#1F1B20" transform="translate(253,291)"/>
<path d="M0 0 C4.51045941 2.46025059 8.18504423 5.60282037 12 9 C11.01 9.33 10.02 9.66 9 10 C8.34 9.67 7.68 9.34 7 9 C7 8.34 7 7.68 7 7 C6.01 6.67 5.02 6.34 4 6 C4 5.34 4 4.68 4 4 C3.01 4 2.02 4 1 4 C0.67 2.68 0.34 1.36 0 0 Z " fill="#DF7174" transform="translate(294,204)"/>
<path d="M0 0 C0.33 1.32 0.66 2.64 1 4 C0.34 4 -0.32 4 -1 4 C-0.9175 4.763125 -0.835 5.52625 -0.75 6.3125 C-1 9 -1 9 -3 10.8125 C-3.66 11.204375 -4.32 11.59625 -5 12 C-5 9.36 -5 6.72 -5 4 C-4.01 3.67 -3.02 3.34 -2 3 C-1.34 2.01 -0.68 1.02 0 0 Z " fill="#8A3B41" transform="translate(285,157)"/>
<path d="M0 0 C1.140625 1.734375 1.140625 1.734375 2 4 C1.171875 6.140625 1.171875 6.140625 -0.25 8.25 C-0.70890625 8.95640625 -1.1678125 9.6628125 -1.640625 10.390625 C-2.08921875 10.92171875 -2.5378125 11.4528125 -3 12 C-3.66 12 -4.32 12 -5 12 C-5 11.01 -5 10.02 -5 9 C-4.34 9 -3.68 9 -3 9 C-2.87625 7.88625 -2.7525 6.7725 -2.625 5.625 C-2 2 -2 2 0 0 Z " fill="#9C5C5E" transform="translate(289,152)"/>
<path d="M0 0 C0.66 0.66 1.32 1.32 2 2 C1.625 5.625 1.625 5.625 1 9 C-0.65 8.67 -2.3 8.34 -4 8 C-3.34 6.02 -2.68 4.04 -2 2 C-1.34 2 -0.68 2 0 2 C0 1.34 0 0.68 0 0 Z " fill="#111C1F" transform="translate(222,382)"/>
<path d="M0 0 C1 2 1 2 0.07421875 5.00390625 C-0.38339844 6.17824219 -0.84101563 7.35257812 -1.3125 8.5625 C-1.76238281 9.73941406 -2.21226562 10.91632813 -2.67578125 12.12890625 C-4 15 -4 15 -6 16 C-5.01 11.71 -4.02 7.42 -3 3 C-2.34 3 -1.68 3 -1 3 C-0.67 2.01 -0.34 1.02 0 0 Z " fill="#2E1B1D" transform="translate(276,304)"/>
<path d="M0 0 C1.32 0.33 2.64 0.66 4 1 C4 3.64 4 6.28 4 9 C2.68 9 1.36 9 0 9 C0 6.03 0 3.06 0 0 Z " fill="#151A1F" transform="translate(172,262)"/>
<path d="M0 0 C0 0.66 0 1.32 0 2 C-1.7015625 2.680625 -1.7015625 2.680625 -3.4375 3.375 C-7.04721692 4.57095806 -7.04721692 4.57095806 -8 7 C-7.01 7.33 -6.02 7.66 -5 8 C-7.97 7.505 -7.97 7.505 -11 7 C-11.33 6.01 -11.66 5.02 -12 4 C-10.3767313 3.3291288 -8.75132422 2.66342971 -7.125 2 C-6.22007812 1.62875 -5.31515625 1.2575 -4.3828125 0.875 C-2 0 -2 0 0 0 Z " fill="#9F6D6B" transform="translate(320,173)"/>
<path d="M0 0 C1.32 0.33 2.64 0.66 4 1 C4.33 2.32 4.66 3.64 5 5 C5.66 5 6.32 5 7 5 C7.33 6.32 7.66 7.64 8 9 C6.02 9 4.04 9 2 9 C2 6 2 6 4 4 C3.34 4 2.68 4 2 4 C2 3.01 2 2.02 2 1 C1.34 0.67 0.68 0.34 0 0 Z " fill="#464D4F" transform="translate(325,327)"/>
<path d="M0 0 C0.185625 0.9590625 0.185625 0.9590625 0.375 1.9375 C0.684375 2.9584375 0.684375 2.9584375 1 4 C1.66 4.33 2.32 4.66 3 5 C2.47731534 7.76276177 1.89130413 10.3260876 1 13 C-1.01951565 9.60721372 -2.05143008 7.68144862 -1.75 3.6875 C-1 1 -1 1 0 0 Z " fill="#363B41" transform="translate(196,321)"/>
<path d="M0 0 C1.05833703 3.28300468 0.99812159 4.00553638 -0.1875 7.5 C-1.84704181 10.70463246 -3.29492345 12.66803746 -6 15 C-5.39644592 11.14974121 -4.23227397 8.13898841 -2.4375 4.6875 C-1.98246094 3.80449219 -1.52742188 2.92148437 -1.05859375 2.01171875 C-0.53458984 1.01591797 -0.53458984 1.01591797 0 0 Z " fill="#571D22" transform="translate(275,310)"/>
<path d="M0 0 C0.66 0.33 1.32 0.66 2 1 C-1.14520953 5.52910172 -4.07157609 7.71180319 -9 10 C-11.21875 9.6015625 -11.21875 9.6015625 -13 9 C-12.22914063 8.60167969 -11.45828125 8.20335937 -10.6640625 7.79296875 C-9.66117187 7.26316406 -8.65828125 6.73335937 -7.625 6.1875 C-6.62726563 5.66542969 -5.62953125 5.14335937 -4.6015625 4.60546875 C-1.77123883 3.10835316 -1.77123883 3.10835316 0 0 Z " fill="#A82726" transform="translate(273,154)"/>
<path d="M0 0 C0.33 0 0.66 0 1 0 C1 1.98 1 3.96 1 6 C-0.32 6.33 -1.64 6.66 -3 7 C-2.01 7.66 -1.02 8.32 0 9 C-0.99 10.485 -0.99 10.485 -2 12 C-2.99 11.34 -3.98 10.68 -5 10 C-4.49380917 6.25418786 -3.84235245 4.48705839 -1 2 C-0.67 1.34 -0.34 0.68 0 0 Z " fill="#666A6C" transform="translate(324,328)"/>
<path d="M0 0 C0.99 0.33 1.98 0.66 3 1 C2.25 8.75 2.25 8.75 0 11 C0 10.34 0 9.68 0 9 C-0.66 8.67 -1.32 8.34 -2 8 C-1.01 8 -0.02 8 1 8 C1 7.34 1 6.68 1 6 C0.34 6 -0.32 6 -1 6 C-1.33 5.01 -1.66 4.02 -2 3 C-1.34 3 -0.68 3 0 3 C0 2.01 0 1.02 0 0 Z " fill="#51585D" transform="translate(219,202)"/>
<path d="M0 0 C0.66 0.66 1.32 1.32 2 2 C0.68 2.33 -0.64 2.66 -2 3 C-2 2.34 -2 1.68 -2 1 C-4.64 1 -7.28 1 -10 1 C-10.33 1.99 -10.66 2.98 -11 4 C-11.99 3.34 -12.98 2.68 -14 2 C-8.77158711 -1.26775806 -5.82957867 -1.26307538 0 0 Z " fill="#DC7B78" transform="translate(273,192)"/>
<path d="M0 0 C4.455 0.99 4.455 0.99 9 2 C9 2.33 9 2.66 9 3 C6 4 3 5 0 6 C-1 3 -1 3 0 0 Z " fill="#8E3637" transform="translate(178,178)"/>
<path d="M0 0 C0.99 0.33 1.98 0.66 3 1 C3.73046875 3.06640625 3.73046875 3.06640625 4.1875 5.5625 C4.34605469 6.38878906 4.50460937 7.21507812 4.66796875 8.06640625 C4.77753906 8.70449219 4.88710938 9.34257812 5 10 C3.02 8.35 1.04 6.7 -1 5 C-0.67 3.35 -0.34 1.7 0 0 Z " fill="#C22B29" transform="translate(331,175)"/>
<path d="M0 0 C0.66 0.99 1.32 1.98 2 3 C1.67 3.66 1.34 4.32 1 5 C1.66 5 2.32 5 3 5 C3 5.66 3 6.32 3 7 C-0.28976808 8.09658936 -1.71303767 7.79953138 -5 7 C-3.35 4.69 -1.7 2.38 0 0 Z " fill="#B6514E" transform="translate(325,166)"/>
<path d="M0 0 C0.99 0.33 1.98 0.66 3 1 C2.67 1.66 2.34 2.32 2 3 C1.34 3 0.68 3 0 3 C-0.33 4.32 -0.66 5.64 -1 7 C-2.32 6.67 -3.64 6.34 -5 6 C-3.63016497 2.83884224 -3.0109362 2.0072908 0 0 Z " fill="#474E50" transform="translate(178,123)"/>
<path d="M0 0 C-0.99 1.485 -0.99 1.485 -2 3 C-4.97 2.505 -4.97 2.505 -8 2 C-8.66 3.32 -9.32 4.64 -10 6 C-10.66 5.34 -11.32 4.68 -12 4 C-8.31497587 -0.23095363 -5.4879376 -1.82931253 0 0 Z " fill="#AF4543" transform="translate(226,101)"/>
<path d="M0 0 C1.65 0.33 3.3 0.66 5 1 C4.34 4.3 3.68 7.6 3 11 C2.67 11 2.34 11 2 11 C1.01 7.7 0.02 4.4 -1 1 C-0.67 0.67 -0.34 0.34 0 0 Z " fill="#4E5157" transform="translate(201,338)"/>
<path d="M0 0 C0.33 0 0.66 0 1 0 C1 6.27 1 12.54 1 19 C0.67 19 0.34 19 0 19 C-2.16079916 12.11868574 -1.88101367 6.93081189 0 0 Z " fill="#7F8186" transform="translate(214,234)"/>
<path d="M0 0 C2 1 2 1 3.3125 3.3125 C5.17518219 6.27899385 7.18861522 7.94844894 10 10 C5.545 9.01 5.545 9.01 1 8 C0.67 5.36 0.34 2.72 0 0 Z " fill="#D56868" transform="translate(334,165)"/>
<path d="M0 0 C1.32 0 2.64 0 4 0 C3.649375 0.598125 3.29875 1.19625 2.9375 1.8125 C1.66695302 4.10813214 1.66695302 4.10813214 3 7 C0.69 7.33 -1.62 7.66 -4 8 C-3.01 7.67 -2.02 7.34 -1 7 C-0.67 4.69 -0.34 2.38 0 0 Z " fill="#121A1E" transform="translate(202,394)"/>
<path d="M0 0 C0.99 0 1.98 0 3 0 C1.68775452 3.93673644 0.08089673 6.22719294 -3 9 C-3.33 7.68 -3.66 6.36 -4 5 C-3.01 4.67 -2.02 4.34 -1 4 C-0.26676204 1.98491642 -0.26676204 1.98491642 0 0 Z " fill="#545256" transform="translate(301,329)"/>
<path d="M0 0 C1.12377697 3.30435084 0.89554742 5.0506862 -0.4375 8.25 C-0.72496094 8.95640625 -1.01242187 9.6628125 -1.30859375 10.390625 C-1.53675781 10.92171875 -1.76492188 11.4528125 -2 12 C-2.33 12 -2.66 12 -3 12 C-3.25 4.375 -3.25 4.375 -1 1 C-0.67 0.67 -0.34 0.34 0 0 Z " fill="#8E5860" transform="translate(324,286)"/>
<path d="M0 0 C1.9375 0.3125 1.9375 0.3125 4 1 C4.33 1.99 4.66 2.98 5 4 C3.5625 6.1875 3.5625 6.1875 2 8 C0 7 0 7 -1 5 C-0.72057545 3.32345271 -0.39171753 1.65391846 0 0 Z " fill="#391E1D" transform="translate(166,185)"/>
<path d="M0 0 C2.31 0 4.62 0 7 0 C7 0.99 7 1.98 7 3 C8.43750191 4.68798827 8.43750191 4.68798827 10 6 C9.34 6.66 8.68 7.32 8 8 C7.13375 6.824375 7.13375 6.824375 6.25 5.625 C4.17102363 3.19952756 2.90959667 2.14305583 0 1 C0 0.67 0 0.34 0 0 Z " fill="#945659" transform="translate(316,181)"/>
<path d="M0 0 C1.99788438 0.34578768 3.99759451 0.68143549 6 1 C6 1.33 6 1.66 6 2 C0.06 2.495 0.06 2.495 -6 3 C-6.33 2.01 -6.66 1.02 -7 0 C-3.70955471 -1.0968151 -3.16885176 -0.90538622 0 0 Z " fill="#727277" transform="translate(173,405)"/>
<path d="M0 0 C0 1.65 0 3.3 0 5 C-0.5775 4.835 -1.155 4.67 -1.75 4.5 C-4.26664369 3.85537969 -4.26664369 3.85537969 -8 4 C-4.5 0 -4.5 0 0 0 Z " fill="#3F2B2C" transform="translate(303,361)"/>
<path d="M0 0 C2.45823172 3.68734758 3.01242616 6.69699971 4 11 C3.34 10.67 2.68 10.34 2 10 C2 9.01 2 8.02 2 7 C1.01 7.33 0.02 7.66 -1 8 C-1.33 6.35 -1.66 4.7 -2 3 C-1.34 3 -0.68 3 0 3 C0 2.01 0 1.02 0 0 Z " fill="#585C60" transform="translate(219,269)"/>
<path d="M0 0 C0.99 0 1.98 0 3 0 C2.71715982 1.77226453 2.42339502 3.542788 2.125 5.3125 C1.96257812 6.29863281 1.80015625 7.28476563 1.6328125 8.30078125 C1 11 1 11 -1 14 C-1.08333357 9.1666528 -0.95261487 4.76307437 0 0 Z " fill="#75797D" transform="translate(216,213)"/>
<path d="M0 0 C0.66 0.33 1.32 0.66 2 1 C1.34 3.31 0.68 5.62 0 8 C-0.99 7.67 -1.98 7.34 -3 7 C-3 6.34 -3 5.68 -3 5 C-3.66 4.67 -4.32 4.34 -5 4 C-3.35 2.68 -1.7 1.36 0 0 Z " fill="#4E5557" transform="translate(203,204)"/>
<path d="M0 0 C1.65 0.33 3.3 0.66 5 1 C3.625 2.5 3.625 2.5 2 4 C1.34 4 0.68 4 0 4 C0 4.66 0 5.32 0 6 C-0.66 6 -1.32 6 -2 6 C-2.33 6.99 -2.66 7.98 -3 9 C-3.26218749 5.85375007 -3.24754367 4.38162983 -1.5 1.6875 C-1.005 1.130625 -0.51 0.57375 0 0 Z " fill="#C16363" transform="translate(338,181)"/>
<path d="M0 0 C0.66 0.66 1.32 1.32 2 2 C0.68 2 -0.64 2 -2 2 C-1.67 3.98 -1.34 5.96 -1 8 C-1.66 8 -2.32 8 -3 8 C-3 7.01 -3 6.02 -3 5 C-3.99 5 -4.98 5 -6 5 C-5.67 3.68 -5.34 2.36 -5 1 C-2.625 0.375 -2.625 0.375 0 0 Z " fill="#121E22" transform="translate(270,360)"/>
<path d="M0 0 C0.66 0 1.32 0 2 0 C2.05422947 1.4370809 2.09289723 2.87475462 2.125 4.3125 C2.14820313 5.11300781 2.17140625 5.91351563 2.1953125 6.73828125 C2 9 2 9 0 12 C-0.19573608 10.56359829 -0.38127816 9.12580496 -0.5625 7.6875 C-0.66691406 6.88699219 -0.77132813 6.08648437 -0.87890625 5.26171875 C-1 3 -1 3 0 0 Z " fill="#975656" transform="translate(325,274)"/>
<path d="M0 0 C0.33 1.32 0.66 2.64 1 4 C0.34 3.34 -0.32 2.68 -1 2 C-0.67 1.34 -0.34 0.68 0 0 Z M-4 2 C-3.01 2.33 -2.02 2.66 -1 3 C-2.36983503 6.16115776 -2.9890638 6.9927092 -6 9 C-6.125 6.625 -6.125 6.625 -6 4 C-5.34 3.34 -4.68 2.68 -4 2 Z " fill="#2A3435" transform="translate(209,202)"/>
<path d="M0 0 C0.556875 0.226875 1.11375 0.45375 1.6875 0.6875 C-2.05775799 4.43275799 -6.29520909 4.37659949 -11.3125 4.6875 C-10.39984375 4.24470703 -10.39984375 4.24470703 -9.46875 3.79296875 C-7.19989098 2.68410084 -7.19989098 2.68410084 -4.8125 1 C-2.3125 -0.3125 -2.3125 -0.3125 0 0 Z " fill="#77201C" transform="translate(269.3125,161.3125)"/>
<path d="M0 0 C-0.33 0.99 -0.66 1.98 -1 3 C-2.98 3 -4.96 3 -7 3 C-7 2.34 -7 1.68 -7 1 C-7.66 0.67 -8.32 0.34 -9 0 C-2.25 -1.125 -2.25 -1.125 0 0 Z " fill="#151D22" transform="translate(190,402)"/>
<path d="M0 0 C0.33 0.66 0.66 1.32 1 2 C0.38125 2.433125 -0.2375 2.86625 -0.875 3.3125 C-3.2197245 4.99740483 -3.2197245 4.99740483 -5 8 C-5 7.34 -5 6.68 -5 6 C-6.65 6 -8.3 6 -10 6 C-6.87567603 3.47650757 -3.61939504 1.72743854 0 0 Z " fill="#5C6064" transform="translate(211,388)"/>
<path d="M0 0 C0.66 0.33 1.32 0.66 2 1 C1.67 2.65 1.34 4.3 1 6 C-0.32 6.33 -1.64 6.66 -3 7 C-2.625 4.0625 -2.625 4.0625 -2 1 C-1.34 0.67 -0.68 0.34 0 0 Z " fill="#333639" transform="translate(237,368)"/>
<path d="M0 0 C1.25541557 3.76624671 0.37061958 5.37188934 -1 9 C-1.99 8.67 -2.98 8.34 -4 8 C-3.67 6.35 -3.34 4.7 -3 3 C-2.01 2.67 -1.02 2.34 0 2 C0 1.34 0 0.68 0 0 Z " fill="#6B6466" transform="translate(171,193)"/>
<path d="M0 0 C1.65 0.33 3.3 0.66 5 1 C5 1.66 5 2.32 5 3 C3.04196493 3.05389087 1.08351091 3.09274217 -0.875 3.125 C-1.96554688 3.14820313 -3.05609375 3.17140625 -4.1796875 3.1953125 C-7 3 -7 3 -9 1 C-6.03 1.33 -3.06 1.66 0 2 C0 1.34 0 0.68 0 0 Z " fill="#271B1D" transform="translate(249,177)"/>
<path d="M0 0 C1.37562854 1.28965176 2.70766393 2.62689293 4 4 C4 4.66 4 5.32 4 6 C1.69 6.33 -0.62 6.66 -3 7 C-2.01 4.69 -1.02 2.38 0 0 Z " fill="#591C1D" transform="translate(162,174)"/>
<path d="M0 0 C0.47050781 0.33773437 0.94101563 0.67546875 1.42578125 1.0234375 C2.35970703 1.69246094 2.35970703 1.69246094 3.3125 2.375 C4.23482422 3.03628906 4.23482422 3.03628906 5.17578125 3.7109375 C6.7652392 4.83410907 8.38062171 5.92041447 10 7 C8.02 7 6.04 7 4 7 C4 6.34 4 5.68 4 5 C2.68 4.67 1.36 4.34 0 4 C0 2.68 0 1.36 0 0 Z " fill="#B16367" transform="translate(175,169)"/>
<path d="M0 0 C0.33 0.99 0.66 1.98 1 3 C1.66 3.33 2.32 3.66 3 4 C3 5.65 3 7.3 3 9 C2.21625 8.195625 1.4325 7.39125 0.625 6.5625 C-1.71982856 4.01309583 -1.71982856 4.01309583 -4 3 C-2.68 2.01 -1.36 1.02 0 0 Z " fill="#7A3434" transform="translate(163,169)"/>
<path d="M0 0 C0.99 0.33 1.98 0.66 3 1 C3 1.66 3 2.32 3 3 C5.64 3.66 8.28 4.32 11 5 C11 5.33 11 5.66 11 6 C9.54077307 5.88590407 8.08259402 5.75834456 6.625 5.625 C5.40683594 5.52058594 5.40683594 5.52058594 4.1640625 5.4140625 C2 5 2 5 0 3 C0 2.01 0 1.02 0 0 Z " fill="#4B1B1A" transform="translate(229,160)"/>
<path d="M0 0 C0.33 0 0.66 0 1 0 C1.1953125 6.0546875 1.1953125 6.0546875 1 8 C0.34 8.66 -0.32 9.32 -1 10 C-1.99 9.67 -2.98 9.34 -4 9 C-3.67 8.01 -3.34 7.02 -3 6 C-2.34 6 -1.68 6 -1 6 C-1.020625 5.195625 -1.04125 4.39125 -1.0625 3.5625 C-1 1 -1 1 0 0 Z " fill="#B12825" transform="translate(281,141)"/>
<path d="M0 0 C-0.33 1.65 -0.66 3.3 -1 5 C-1.66 5 -2.32 5 -3 5 C-3.33 5.99 -3.66 6.98 -4 8 C-4.33 8 -4.66 8 -5 8 C-5.36625971 3.48279689 -5.36625971 3.48279689 -3.625 1.1875 C-2 0 -2 0 0 0 Z " fill="#40444B" transform="translate(225,362)"/>
<path d="M0 0 C1.32 0 2.64 0 4 0 C3.67 1.98 3.34 3.96 3 6 C0.525 5.01 0.525 5.01 -2 4 C-1.34 2.68 -0.68 1.36 0 0 Z " fill="#161E20" transform="translate(284,344)"/>
<path d="M0 0 C0.66 0.33 1.32 0.66 2 1 C1.34 2.98 0.68 4.96 0 7 C-1.32 6.67 -2.64 6.34 -4 6 C-4 5.34 -4 4.68 -4 4 C-3.01 4 -2.02 4 -1 4 C-0.67 2.68 -0.34 1.36 0 0 Z " fill="#DF3534" transform="translate(292,224)"/>
<path d="M0 0 C0.66 0 1.32 0 2 0 C3.76462683 3.08809695 4 4.23312136 4 8 C2.68 7.67 1.36 7.34 0 7 C0 4.69 0 2.38 0 0 Z " fill="#D1362C" transform="translate(329,161)"/>
<path d="M0 0 C0.99 0.66 1.98 1.32 3 2 C2.01 3.485 2.01 3.485 1 5 C1.66 5.33 2.32 5.66 3 6 C1.02 6.99 1.02 6.99 -1 8 C-1.93065133 5.39417629 -2.14917407 4.35801776 -1.0625 1.75 C-0.711875 1.1725 -0.36125 0.595 0 0 Z " fill="#321D1E" transform="translate(250,351)"/>
<path d="M0 0 C0.66 0 1.32 0 2 0 C2.66 1.98 3.32 3.96 4 6 C2.35 5.67 0.7 5.34 -1 5 C-0.67 3.35 -0.34 1.7 0 0 Z " fill="#171E22" transform="translate(188,309)"/>
<path d="M0 0 C0.66 0.33 1.32 0.66 2 1 C2 1.99 2 2.98 2 4 C1.401875 4.103125 0.80375 4.20625 0.1875 4.3125 C-2.28243264 5.08876455 -3.32251235 6.07088921 -5 8 C-5.33 7.34 -5.66 6.68 -6 6 C-4.71034824 4.62437146 -3.37310707 3.29233607 -2 2 C-1.34 2 -0.68 2 0 2 C0 1.34 0 0.68 0 0 Z " fill="#D73C36" transform="translate(259,195)"/>
<path d="M0 0 C1.98 0 3.96 0 6 0 C6.33 0.99 6.66 1.98 7 3 C4.6875 3.625 4.6875 3.625 2 4 C1.01 3.34 0.02 2.68 -1 2 C-0.67 1.34 -0.34 0.68 0 0 Z " fill="#FA3A39" transform="translate(268,196)"/>
<path d="M0 0 C1.2065625 0.0309375 1.2065625 0.0309375 2.4375 0.0625 C2.1075 1.0525 1.7775 2.0425 1.4375 3.0625 C-1.625 4.25 -1.625 4.25 -4.5625 5.0625 C-3.43829114 0.08386076 -3.43829114 0.08386076 0 0 Z " fill="#6B3F44" transform="translate(271.5625,171.9375)"/>
<path d="M0 0 C1.32 0.33 2.64 0.66 4 1 C4 1.66 4 2.32 4 3 C3.34 3 2.68 3 2 3 C1.67 3.99 1.34 4.98 1 6 C0.01 6 -0.98 6 -2 6 C-1.49396008 3.83125748 -1.00016187 2.00032373 0 0 Z " fill="#494E51" transform="translate(181,130)"/>
<path d="M0 0 C0.66 0.99 1.32 1.98 2 3 C4.58380177 3.25030977 4.58380177 3.25030977 7 3 C4.60490662 5.89932357 2.68754757 6.50168276 -1 7 C-0.67 4.69 -0.34 2.38 0 0 Z " fill="#7D7D80" transform="translate(203,375)"/>
<path d="M0 0 C0.66 0.33 1.32 0.66 2 1 C0.87926138 1.83905565 -0.24674547 2.67107831 -1.375 3.5 C-2.00148438 3.9640625 -2.62796875 4.428125 -3.2734375 4.90625 C-5 6 -5 6 -7 6 C-7.33 4.68 -7.66 3.36 -8 2 C-7.236875 1.855625 -6.47375 1.71125 -5.6875 1.5625 C-2.91827092 1.0367406 -2.91827092 1.0367406 0 0 Z " fill="#5C6165" transform="translate(259,374)"/>
<path d="M0 0 C2.475 0.99 2.475 0.99 5 2 C4.01 2.495 4.01 2.495 3 3 C3 3.99 3 4.98 3 6 C0.525 5.01 0.525 5.01 -2 4 C-1.34 2.68 -0.68 1.36 0 0 Z " fill="#182128" transform="translate(226,352)"/>
<path d="M0 0 C0.66 0.33 1.32 0.66 2 1 C0.8141763 4.37503669 -0.27573689 6.64722731 -3 9 C-3.66 8.67 -4.32 8.34 -5 8 C-4.505 7.401875 -4.01 6.80375 -3.5 6.1875 C-1.71723582 4.02970006 -1.71723582 4.02970006 -2 1 C-1.34 0.67 -0.68 0.34 0 0 Z " fill="#5B1D1F" transform="translate(278,328)"/>
<path d="M0 0 C0.66 0.33 1.32 0.66 2 1 C0.25 6.75 0.25 6.75 -2 9 C-2.33 7.02 -2.66 5.04 -3 3 C-2.01 3 -1.02 3 0 3 C0 2.01 0 1.02 0 0 Z " fill="#66565A" transform="translate(313,310)"/>
<path d="M0 0 C0.66 0 1.32 0 2 0 C2 0.66 2 1.32 2 2 C2.66 2.33 3.32 2.66 4 3 C3.34 3.66 2.68 4.32 2 5 C1.67 5.99 1.34 6.98 1 8 C0.34 7.34 -0.32 6.68 -1 6 C-0.625 2.875 -0.625 2.875 0 0 Z " fill="#E75558" transform="translate(304,221)"/>
<path d="M0 0 C1.98 0.66 3.96 1.32 6 2 C6 2.99 6 3.98 6 5 C4.68 5.33 3.36 5.66 2 6 C2 5.01 2 4.02 2 3 C1.34 2.67 0.68 2.34 0 2 C0 1.34 0 0.68 0 0 Z " fill="#DA7778" transform="translate(345,175)"/>
<path d="M0 0 C0.66 0 1.32 0 2 0 C3 3 3 3 2.0625 5.1875 C1.5365625 6.0846875 1.5365625 6.0846875 1 7 C0.01 6.01 -0.98 5.02 -2 4 C-1.34 2.68 -0.68 1.36 0 0 Z " fill="#70797C" transform="translate(312,125)"/>
<path d="M0 0 C3.93673644 1.31224548 6.22719294 2.91910327 9 6 C2.35384615 4.52307692 2.35384615 4.52307692 0.5625 1.875 C0.376875 1.25625 0.19125 0.6375 0 0 Z " fill="#E68A89" transform="translate(270,95)"/>
<path d="M0 0 C0.33 0.66 0.66 1.32 1 2 C-1.97 2.66 -4.94 3.32 -8 4 C-7.67 3.01 -7.34 2.02 -7 1 C-4.53721199 -0.231394 -2.7204945 -0.07159196 0 0 Z " fill="#474A53" transform="translate(214,397)"/>
<path d="M0 0 C0 1.32 0 2.64 0 4 C-0.66 4 -1.32 4 -2 4 C-2 4.66 -2 5.32 -2 6 C-3.32 5.67 -4.64 5.34 -6 5 C-5.01 5 -4.02 5 -3 5 C-3.66 3.68 -4.32 2.36 -5 1 C-3 0 -3 0 0 0 Z " fill="#2A3338" transform="translate(208,396)"/>
<path d="M0 0 C3.875 4.75 3.875 4.75 5 7 C4.01 7.33 3.02 7.66 2 8 C0 7 0 7 -0.6875 5.125 C-1 3 -1 3 0 0 Z " fill="#603F46" transform="translate(305,358)"/>
<path d="M0 0 C-0.66 0 -1.32 0 -2 0 C-2 0.99 -2 1.98 -2 3 C-1.01 3.33 -0.02 3.66 1 4 C-1.97 3.505 -1.97 3.505 -5 3 C-5.33 2.01 -5.66 1.02 -6 0 C-3.50907189 -1.24546405 -2.58919267 -0.7767578 0 0 Z " fill="#715E62" transform="translate(153,177)"/>
<path d="M0 0 C0.66 0 1.32 0 2 0 C2.93065133 2.60582371 3.14917407 3.64198224 2.0625 6.25 C1.5365625 7.11625 1.5365625 7.11625 1 8 C1 7.34 1 6.68 1 6 C0.34 6 -0.32 6 -1 6 C-0.67 4.02 -0.34 2.04 0 0 Z " fill="#952221" transform="translate(168,162)"/>
<path d="M0 0 C2.5 2.3125 2.5 2.3125 5 5 C5 5.99 5 6.98 5 8 C4.34 7.67 3.68 7.34 3 7 C3 6.34 3 5.68 3 5 C2.01 4.67 1.02 4.34 0 4 C0 2.68 0 1.36 0 0 Z " fill="#E48286" transform="translate(282,104)"/>
<path d="M0 0 C0.66 0 1.32 0 2 0 C2 0.66 2 1.32 2 2 C2.66 2 3.32 2 4 2 C4 1.34 4 0.68 4 0 C4.66 0 5.32 0 6 0 C5 3 5 3 3.125 4.25 C1 5 1 5 -2 4 C-1.34 4 -0.68 4 0 4 C0 2.68 0 1.36 0 0 Z " fill="#414750" transform="translate(232,387)"/>
<path d="M0 0 C0.99 0.33 1.98 0.66 3 1 C0.9927092 4.0109362 0.16115776 4.63016497 -3 6 C-1.125 1.125 -1.125 1.125 0 0 Z " fill="#1A191A" transform="translate(265,348)"/>
<path d="M0 0 C0.33 0.66 0.66 1.32 1 2 C1.99 2 2.98 2 4 2 C3.1875 3.9375 3.1875 3.9375 2 6 C1.01 6.33 0.02 6.66 -1 7 C-0.67 4.69 -0.34 2.38 0 0 Z " fill="#1C2122" transform="translate(255,334)"/>
<path d="M0 0 C1.5625 1.8125 1.5625 1.8125 3 4 C2.67 4.99 2.34 5.98 2 7 C1.01 7.33 0.02 7.66 -1 8 C-1.125 2.25 -1.125 2.25 0 0 Z " fill="#491A20" transform="translate(237,224)"/>
<path d="M0 0 C-3.21451269 1.60725635 -6.43612536 1.05748185 -10 1 C-9.67 0.34 -9.34 -0.32 -9 -1 C-3.609375 -2.40625 -3.609375 -2.40625 0 0 Z " fill="#F53D34" transform="translate(290,209)"/>
<path d="M0 0 C5.53846154 0.61538462 5.53846154 0.61538462 7.875 2.5625 C8.431875 3.2740625 8.431875 3.2740625 9 4 C6.69 3.67 4.38 3.34 2 3 C2 2.34 2 1.68 2 1 C1.34 0.67 0.68 0.34 0 0 Z " fill="#E26F70" transform="translate(285,200)"/>
<path d="M0 0 C1.5 1.3125 1.5 1.3125 3 3 C3 3.99 3 4.98 3 6 C1.68 6 0.36 6 -1 6 C-0.67 4.02 -0.34 2.04 0 0 Z " fill="#BB2727" transform="translate(221,122)"/>
<path d="M0 0 C0.66 1.32 1.32 2.64 2 4 C1.01 5.485 1.01 5.485 0 7 C-0.99 7 -1.98 7 -3 7 C-3 6.01 -3 5.02 -3 4 C-2.34 4 -1.68 4 -1 4 C-0.67 2.68 -0.34 1.36 0 0 Z " fill="#982724" transform="translate(218,103)"/>
<path d="M0 0 C0.66 0.66 1.32 1.32 2 2 C1.625 5.125 1.625 5.125 1 8 C0.34 8 -0.32 8 -1 8 C-1.125 2.25 -1.125 2.25 0 0 Z " fill="#3B2D2F" transform="translate(305,320)"/>
<path d="M0 0 C2.475 0.495 2.475 0.495 5 1 C5 1.99 5 2.98 5 4 C3.68 4.33 2.36 4.66 1 5 C0.67 3.35 0.34 1.7 0 0 Z " fill="#2B1B1E" transform="translate(240,265)"/>
<path d="M0 0 C0.66 0.66 1.32 1.32 2 2 C1.34 3.65 0.68 5.3 0 7 C-0.66 6.67 -1.32 6.34 -2 6 C-1.125 1.125 -1.125 1.125 0 0 Z " fill="#B82F2C" transform="translate(324,251)"/>
<path d="M0 0 C1 2 1 2 0.25 4.5625 C-1 7 -1 7 -4 8 C-2.87548273 5.0280615 -1.77706209 2.66559313 0 0 Z " fill="#5B5D60" transform="translate(185,222)"/>
<path d="M0 0 C-1.25 1.5625 -1.25 1.5625 -3 3 C-5.1875 2.6875 -5.1875 2.6875 -7 2 C-7 1.34 -7 0.68 -7 0 C-4.3333581 -1.33332095 -2.83319697 -0.67102033 0 0 Z " fill="#F43C39" transform="translate(295,220)"/>
<path d="M0 0 C2.31 0.66 4.62 1.32 7 2 C3.25 3.125 3.25 3.125 1 2 C0.67 2.99 0.34 3.98 0 5 C-0.5625 3.0625 -0.5625 3.0625 -1 1 C-0.67 0.67 -0.34 0.34 0 0 Z " fill="#EE575C" transform="translate(301,213)"/>
<path d="M0 0 C1.98 0.495 1.98 0.495 4 1 C2.68 2.65 1.36 4.3 0 6 C-1.125 2.25 -1.125 2.25 0 0 Z " fill="#724D52" transform="translate(173,184)"/>
<path d="M0 0 C0.99 0 1.98 0 3 0 C3 1.32 3 2.64 3 4 C2.01 4 1.02 4 0 4 C-0.33 4.66 -0.66 5.32 -1 6 C-1.042721 4.33388095 -1.04063832 2.66617115 -1 1 C-0.67 0.67 -0.34 0.34 0 0 Z " fill="#C57F81" transform="translate(329,154)"/>
<path d="M0 0 C-1 3 -1 3 -3 4 C-4.13350534 6.01669827 -4.13350534 6.01669827 -5 8 C-5.66 7.67 -6.32 7.34 -7 7 C-3.72340426 0 -3.72340426 0 0 0 Z " fill="#BB2B2A" transform="translate(231,106)"/>
</svg>
